<?xml version="1.0" encoding="utf-8"?>
<!-- Generator: Adobe Illustrator 20.1.0, SVG Export Plug-In . SVG Version: 6.00 Build 0)  -->
<svg version="1.1" id="Capa_1" xmlns="http://www.w3.org/2000/svg" xmlns:xlink="http://www.w3.org/1999/xlink" x="0px" y="0px"
	 viewBox="475.9 20.7 110 68.7" enable-background="new 475.9 20.7 110 68.7" xml:space="preserve">
<g>
	<g>
		<path d="M475.9,54.8l0.1,16.3c0,0.6,0.3,1.2,0.7,1.6c0.4,0.4,0.9,0.5,1.4,0.5c0.1,0,0.1,0,0.2,0l26.7-2.7l12.5,8.7
			c9.5,6.7,20.7,10.1,32.2,10.1c0.6,0,1.3,0,1.9,0c12.3-0.4,23.8-4.7,33.4-12.3c0.6-0.4,0.8-1.1,0.8-1.8c-0.1-0.7-0.5-1.3-1.1-1.7
			l-22.5-12.3L557,43.4c-2.1-7.2-6.8-13.4-13-17.5c-6.3-4.1-13.8-5.9-21.2-5l-18.9,2.3C487.8,25.1,475.8,38.7,475.9,54.8z
			 M511.4,69.8l48.6-5l19.8,10.8c-17.8,12.5-41.9,12.7-59.9,0.1L511.4,69.8z M480.1,54.8c-0.1-14,10.3-25.8,24.2-27.5l18.9-2.3
			c13.4-1.6,25.9,6.6,29.7,19.5l2.3,7.6l-14,1.5c-1.2,0.1-2,1.2-1.9,2.3c0.1,1.1,1,1.9,2.1,1.9c0.1,0,0.2,0,0.2,0l14.7-1.6l1.3,4.5
			l-77.6,8L480.1,54.8z"/>
	</g>
</g>
<g>
	<g>
		<path d="M533,56.7c0.1,1.1,1,1.9,2.1,1.9c0.1,0,0.2,0,0.2,0c1.2-0.1,2-1.2,1.9-2.3c-0.1-1.2-1.2-2-2.3-1.9l0,0
			C533.8,54.5,532.9,55.6,533,56.7z"/>
	</g>
</g>
</svg>
