<?xml version="1.0" encoding="utf-8"?>
<!-- Generator: Adobe Illustrator 20.1.0, SVG Export Plug-In . SVG Version: 6.00 Build 0)  -->
<svg version="1.1" id="Layer_1" xmlns="http://www.w3.org/2000/svg" xmlns:xlink="http://www.w3.org/1999/xlink" x="0px" y="0px"
	 viewBox="0 0 230.7 172.6" enable-background="new 0 0 230.7 172.6" xml:space="preserve">
<path fill="#FFFFFF" d="M2.7,0.3v4.5h3.5l3.1-4.5h3.2L8.6,5.9l4.2,6.5H9.5L6.3,7.3H2.7v5.2H0V0.3H2.7z"/>
<path fill="#FFFFFF" d="M27.2,2.9h-6.2c-2.4,0-3.8,1.1-3.8,3.5c0,2.4,1.5,3.5,3.8,3.5h6.2v2.8H21c-4,0-6.3-2.4-6.3-6.2
	c0-3.8,2.2-6.2,6.3-6.2h6.2V2.9z"/>
<path fill="#FFFFFF" d="M24.6,27v-4.5H21L18,27h-3.2l3.9-5.6l-4.2-6.5h3.3L21,20h3.6v-5.2h2.7V27H24.6z"/>
<path fill="#FFFFFF" d="M8.9,25.6c1-1.4,1.4-2.9,1.4-4.8c0-2.4-0.6-2.9-1.3-2.9c-0.7,0-0.9,0.6-1,1.6L7.6,23
	c-0.3,2.6-1.4,4.2-3.7,4.2c-2.7,0-4-2.7-4-6.3c0-2.5,0.5-4.4,2-6.3l2.1,1.3c-1.2,1.7-1.7,3.3-1.7,5.3c0,1.9,0.5,3.3,1.5,3.3
	c0.7,0,1-0.4,1.1-1.4l0.5-4.1c0.3-2.5,1.3-4,3.5-4c2.6,0,3.8,2.6,3.8,5.7c0,2.3-0.4,4.2-1.8,6.1L8.9,25.6z"/>
<path fill="#FFFFFF" d="M56.1,2.7h-4.5v3.5l4.5,3.1v3.2l-5.6-3.9l-6.5,4.2V9.5l5.2-3.2V2.7h-5.2V0h12.2V2.7z"/>
<path fill="#FFFFFF" d="M53.5,27.2v-6.2c0-2.4-1.1-3.8-3.5-3.8c-2.4,0-3.5,1.5-3.5,3.8v6.2h-2.8V21c0-4,2.4-6.3,6.2-6.3
	c3.8,0,6.2,2.2,6.2,6.3v6.2H53.5z"/>
<path fill="#FFFFFF" d="M29.4,24.6h4.5V21L29.4,18v-3.2l5.6,3.9l6.5-4.2v3.3L36.4,21v3.6h5.2v2.7H29.4V24.6z"/>
<path fill="#FFFFFF" d="M30.8,8.9c1.4,1,2.9,1.4,4.8,1.4c2.4,0,2.9-0.6,2.9-1.3c0-0.7-0.6-0.9-1.6-1l-3.7-0.4
	c-2.6-0.3-4.2-1.4-4.2-3.7c0-2.7,2.7-4,6.3-4c2.5,0,4.4,0.5,6.3,2l-1.3,2.1c-1.7-1.2-3.3-1.7-5.3-1.7c-1.9,0-3.3,0.5-3.3,1.5
	c0,0.7,0.4,1,1.4,1.1l4.1,0.5c2.5,0.3,4,1.3,4,3.5c0,2.6-2.6,3.8-5.7,3.8c-2.3,0-4.2-0.4-6.1-1.8L30.8,8.9z"/>
<path fill="#FFFFFF" d="M82.7,27v-4.5h-3.5L76.1,27h-3.2l3.9-5.6l-4.2-6.5h3.3l3.2,5.2h3.6v-5.2h2.7V27H82.7z"/>
<path fill="#FFFFFF" d="M58.3,24.4h6.2c2.4,0,3.8-1.1,3.8-3.5c0-2.4-1.5-3.5-3.8-3.5h-6.2v-2.7h6.2c4,0,6.3,2.4,6.3,6.2
	c0,3.8-2.2,6.2-6.3,6.2h-6.2V24.4z"/>
<path fill="#FFFFFF" d="M60.8,0.3v4.5h3.5l3.1-4.5h3.2l-3.9,5.6l4.2,6.5h-3.3l-3.2-5.2h-3.6v5.2h-2.7V0.3H60.8z"/>
<path fill="#FFFFFF" d="M76.5,1.8c-1,1.4-1.4,2.9-1.4,4.8c0,2.4,0.6,2.9,1.3,2.9c0.7,0,0.9-0.6,1-1.6l0.4-3.7
	c0.3-2.6,1.4-4.2,3.7-4.2c2.7,0,4,2.7,4,6.3c0,2.5-0.5,4.4-2,6.3l-2.1-1.3C82.5,9.7,83,8.1,83,6.1c0-1.9-0.5-3.3-1.5-3.3
	c-0.7,0-1,0.4-1.1,1.4l-0.5,4.1c-0.3,2.5-1.3,4-3.5,4c-2.6,0-3.8-2.6-3.8-5.7c0-2.3,0.4-4.2,1.8-6.1L76.5,1.8z"/>
<path fill="#FFFFFF" d="M87.5,24.6H92V21L87.5,18v-3.2l5.6,3.9l6.5-4.2v3.3L94.5,21v3.6h5.2v2.7H87.5V24.6z"/>
<path fill="#FFFFFF" d="M90.1,0.2v6.2c0,2.4,1.1,3.8,3.5,3.8c2.4,0,3.5-1.5,3.5-3.8V0.2h2.8v6.2c0,4-2.4,6.3-6.2,6.3
	c-3.8,0-6.2-2.2-6.2-6.3V0.2H90.1z"/>
<path fill="#FFFFFF" d="M114.2,2.7h-4.5v3.5l4.5,3.1v3.2l-5.6-3.9l-6.5,4.2V9.5l5.2-3.2V2.7H102V0h12.2V2.7z"/>
<path fill="#FFFFFF" d="M112.7,18.4c-1.4-1-2.9-1.4-4.8-1.4c-2.4,0-2.9,0.6-2.9,1.3c0,0.7,0.6,0.9,1.6,1l3.7,0.4
	c2.6,0.3,4.2,1.4,4.2,3.7c0,2.7-2.7,4-6.3,4c-2.5,0-4.4-0.5-6.3-2l1.3-2.1c1.7,1.2,3.3,1.7,5.3,1.7c1.9,0,3.3-0.5,3.3-1.5
	c0-0.7-0.4-1-1.4-1.1l-4.1-0.5c-2.5-0.3-4-1.3-4-3.5c0-2.6,2.6-3.8,5.7-3.8c2.3,0,4.2,0.4,6.1,1.8L112.7,18.4z"/>
<path fill="#FFFFFF" d="M89.9,29.4v4.5h3.5l3.1-4.5h3.2L95.8,35l4.2,6.5h-3.3l-3.2-5.2h-3.6v5.2h-2.7V29.4H89.9z"/>
<path fill="#FFFFFF" d="M114.3,32h-6.2c-2.4,0-3.8,1.1-3.8,3.5c0,2.4,1.5,3.5,3.8,3.5h6.2v2.8h-6.2c-4,0-6.3-2.4-6.3-6.2
	c0-3.8,2.2-6.2,6.3-6.2h6.2V32z"/>
<path fill="#FFFFFF" d="M111.7,56.1v-4.5h-3.5l-3.1,4.5H102l3.9-5.6l-4.2-6.5h3.3l3.2,5.2h3.6v-5.2h2.7v12.2H111.7z"/>
<path fill="#FFFFFF" d="M96.1,54.6c1-1.4,1.4-2.9,1.4-4.8c0-2.4-0.6-2.9-1.3-2.9c-0.7,0-0.9,0.6-1,1.6l-0.4,3.7
	c-0.3,2.6-1.4,4.2-3.7,4.2c-2.7,0-4-2.7-4-6.3c0-2.5,0.5-4.4,2-6.3l2.1,1.3c-1.2,1.7-1.7,3.3-1.7,5.3c0,1.9,0.5,3.3,1.5,3.3
	c0.7,0,1-0.4,1.1-1.4l0.5-4.1c0.3-2.5,1.3-4,3.5-4c2.6,0,3.8,2.6,3.8,5.7c0,2.3-0.4,4.2-1.8,6.1L96.1,54.6z"/>
<path fill="#FFFFFF" d="M29.4,53.6h4.5v-3.5L29.4,47v-3.2l5.6,3.9l6.5-4.2v3.3L36.4,50v3.6h5.2v2.7H29.4V53.6z"/>
<path fill="#FFFFFF" d="M32,29.2v6.2c0,2.4,1.1,3.8,3.5,3.8c2.4,0,3.5-1.5,3.5-3.8v-6.2h2.8v6.2c0,4-2.4,6.3-6.2,6.3
	c-3.8,0-6.2-2.2-6.2-6.3v-6.2H32z"/>
<path fill="#FFFFFF" d="M56.1,31.8h-4.5v3.5l4.5,3.1v3.2l-5.6-3.9l-6.5,4.2v-3.3l5.2-3.2v-3.6h-5.2v-2.7h12.2V31.8z"/>
<path fill="#FFFFFF" d="M54.6,47.4c-1.4-1-2.9-1.4-4.8-1.4c-2.4,0-2.9,0.6-2.9,1.3c0,0.7,0.6,0.9,1.6,1l3.7,0.4
	c2.6,0.3,4.2,1.4,4.2,3.7c0,2.7-2.7,4-6.3,4c-2.5,0-4.4-0.5-6.3-2l1.3-2.1c1.7,1.2,3.3,1.7,5.3,1.7c1.9,0,3.3-0.5,3.3-1.5
	c0-0.7-0.4-1-1.4-1.1l-4.1-0.5c-2.5-0.3-4-1.3-4-3.5c0-2.6,2.6-3.8,5.7-3.8c2.3,0,4.2,0.4,6.1,1.8L54.6,47.4z"/>
<path fill="#FFFFFF" d="M24.6,56.1v-4.5H21L18,56.1h-3.2l3.9-5.6l-4.2-6.5h3.3l3.2,5.2h3.6v-5.2h2.7v12.2H24.6z"/>
<path fill="#FFFFFF" d="M0.2,53.5h6.2c2.4,0,3.8-1.1,3.8-3.5c0-2.4-1.5-3.5-3.8-3.5H0.2v-2.8h6.2c4,0,6.3,2.4,6.3,6.2
	c0,3.8-2.2,6.2-6.3,6.2H0.2V53.5z"/>
<path fill="#FFFFFF" d="M2.7,29.4v4.5h3.5l3.1-4.5h3.2L8.6,35l4.2,6.5H9.5l-3.2-5.2H2.7v5.2H0V29.4H2.7z"/>
<path fill="#FFFFFF" d="M18.4,30.8c-1,1.4-1.4,2.9-1.4,4.8c0,2.4,0.6,2.9,1.3,2.9c0.7,0,0.9-0.6,1-1.6l0.4-3.7
	c0.3-2.6,1.4-4.2,3.7-4.2c2.7,0,4,2.7,4,6.3c0,2.5-0.5,4.4-2,6.3l-2.1-1.3c1.2-1.7,1.7-3.3,1.7-5.3c0-1.9-0.5-3.3-1.5-3.3
	c-0.7,0-1,0.4-1.1,1.4l-0.5,4.1c-0.3,2.5-1.3,4-3.5,4c-2.6,0-3.8-2.6-3.8-5.7c0-2.3,0.4-4.2,1.8-6.1L18.4,30.8z"/>
<path fill="#FFFFFF" d="M85.1,31.8h-4.5v3.5l4.5,3.1v3.2l-5.6-3.9l-6.5,4.2v-3.3l5.2-3.2v-3.6h-5.2v-2.7h12.2V31.8z"/>
<path fill="#FFFFFF" d="M82.5,56.2V50c0-2.4-1.1-3.8-3.5-3.8s-3.5,1.5-3.5,3.8v6.2h-2.8V50c0-4,2.4-6.3,6.2-6.3s6.2,2.2,6.2,6.3v6.2
	H82.5z"/>
<path fill="#FFFFFF" d="M58.4,53.6h4.5v-3.5L58.4,47v-3.2l5.6,3.9l6.5-4.2v3.3L65.4,50v3.6h5.2v2.7H58.4V53.6z"/>
<path fill="#FFFFFF" d="M59.9,38c1.4,1,2.9,1.4,4.8,1.4c2.4,0,2.9-0.6,2.9-1.3c0-0.7-0.6-0.9-1.6-1l-3.7-0.4
	c-2.6-0.3-4.2-1.4-4.2-3.7c0-2.7,2.7-4,6.3-4c2.5,0,4.4,0.5,6.3,2l-1.3,2.1c-1.7-1.2-3.3-1.7-5.3-1.7c-1.9,0-3.3,0.5-3.3,1.5
	c0,0.7,0.4,1,1.4,1.1l4.1,0.5c2.5,0.3,4,1.3,4,3.5c0,2.6-2.6,3.8-5.7,3.8c-2.3,0-4.2-0.4-6.1-1.8L59.9,38z"/>
<path fill="#FFFFFF" d="M27,60.8h-4.5v3.5l4.5,3.1v3.2l-5.6-3.9l-6.5,4.2v-3.3l5.2-3.2v-3.6h-5.2v-2.7H27V60.8z"/>
<path fill="#FFFFFF" d="M24.4,85.3V79c0-2.4-1.1-3.8-3.5-3.8c-2.4,0-3.5,1.5-3.5,3.8v6.2h-2.7v-6.2c0-4,2.4-6.3,6.2-6.3
	c3.8,0,6.2,2.2,6.2,6.3v6.2H24.4z"/>
<path fill="#FFFFFF" d="M0.3,82.7h4.5v-3.5l-4.5-3.1v-3.2l5.6,3.9l6.5-4.2v3.3l-5.2,3.2v3.6h5.2v2.7H0.3V82.7z"/>
<path fill="#FFFFFF" d="M1.8,67.1c1.4,1,2.9,1.4,4.8,1.4c2.4,0,2.9-0.6,2.9-1.3c0-0.7-0.6-0.9-1.6-1l-3.7-0.4
	c-2.6-0.3-4.2-1.4-4.2-3.7c0-2.7,2.7-4,6.3-4c2.5,0,4.4,0.5,6.3,2l-1.3,2.1c-1.7-1.2-3.3-1.7-5.3-1.7c-1.9,0-3.3,0.5-3.3,1.5
	c0,0.7,0.4,1,1.4,1.1l4.1,0.5c2.5,0.3,4,1.3,4,3.5c0,2.6-2.6,3.8-5.7,3.8c-2.3,0-4.2-0.4-6.1-1.8L1.8,67.1z"/>
<path fill="#FFFFFF" d="M111.7,85.1v-4.5h-3.5l-3.1,4.5H102l3.9-5.6l-4.2-6.5h3.3l3.2,5.2h3.6v-5.2h2.7v12.2H111.7z"/>
<path fill="#FFFFFF" d="M87.3,82.5h6.2c2.4,0,3.8-1.1,3.8-3.5c0-2.4-1.5-3.5-3.8-3.5h-6.2v-2.8h6.2c4,0,6.3,2.4,6.3,6.2
	c0,3.8-2.2,6.2-6.3,6.2h-6.2V82.5z"/>
<path fill="#FFFFFF" d="M89.9,58.4v4.5h3.5l3.1-4.5h3.2l-3.9,5.6l4.2,6.5h-3.3l-3.2-5.2h-3.6v5.2h-2.7V58.4H89.9z"/>
<path fill="#FFFFFF" d="M105.5,59.9c-1,1.4-1.4,2.9-1.4,4.8c0,2.4,0.6,2.9,1.3,2.9c0.7,0,0.9-0.6,1-1.6l0.4-3.7
	c0.3-2.6,1.4-4.2,3.7-4.2c2.7,0,4,2.7,4,6.3c0,2.5-0.5,4.4-2,6.3l-2.1-1.3c1.2-1.7,1.7-3.3,1.7-5.3c0-1.9-0.5-3.3-1.5-3.3
	c-0.7,0-1,0.4-1.1,1.4l-0.5,4.1c-0.3,2.5-1.3,4-3.5,4c-2.6,0-3.8-2.6-3.8-5.7c0-2.3,0.4-4.2,1.8-6.1L105.5,59.9z"/>
<path fill="#FFFFFF" d="M114.2,89.9h-4.5v3.5l4.5,3.1v3.2l-5.6-3.9l-6.5,4.2v-3.3l5.2-3.2v-3.6H102v-2.7h12.2V89.9z"/>
<path fill="#FFFFFF" d="M111.6,114.3v-6.2c0-2.4-1.1-3.8-3.5-3.8c-2.4,0-3.5,1.5-3.5,3.8v6.2h-2.8v-6.2c0-4,2.4-6.3,6.2-6.3
	c3.8,0,6.2,2.2,6.2,6.3v6.2H111.6z"/>
<path fill="#FFFFFF" d="M87.5,111.7H92v-3.5l-4.5-3.1V102l5.6,3.9l6.5-4.2v3.3l-5.2,3.2v3.6h5.2v2.7H87.5V111.7z"/>
<path fill="#FFFFFF" d="M88.9,96.1c1.4,1,2.9,1.4,4.8,1.4c2.4,0,2.9-0.6,2.9-1.3c0-0.7-0.6-0.9-1.6-1l-3.7-0.4
	c-2.6-0.3-4.2-1.4-4.2-3.7c0-2.7,2.7-4,6.3-4c2.5,0,4.4,0.5,6.3,2l-1.3,2.1c-1.7-1.2-3.3-1.7-5.3-1.7c-1.9,0-3.3,0.5-3.3,1.5
	c0,0.7,0.4,1,1.4,1.1l4.1,0.5c2.5,0.3,4,1.3,4,3.5c0,2.6-2.6,3.8-5.7,3.8c-2.3,0-4.2-0.4-6.1-1.8L88.9,96.1z"/>
<path fill="#FFFFFF" d="M31.8,58.4v4.5h3.5l3.1-4.5h3.2l-3.9,5.6l4.2,6.5h-3.3l-3.2-5.2h-3.6v5.2h-2.7V58.4H31.8z"/>
<path fill="#FFFFFF" d="M56.2,61H50c-2.4,0-3.8,1.1-3.8,3.5S47.6,68,50,68h6.2v2.8H50c-4,0-6.3-2.4-6.3-6.2c0-3.8,2.2-6.2,6.3-6.2
	h6.2V61z"/>
<path fill="#FFFFFF" d="M53.6,85.1v-4.5h-3.5L47,85.1h-3.2l3.9-5.6l-4.2-6.5h3.3l3.2,5.2h3.6v-5.2h2.7v12.2H53.6z"/>
<path fill="#FFFFFF" d="M38,83.7c1-1.4,1.4-2.9,1.4-4.8c0-2.4-0.6-2.9-1.3-2.9c-0.7,0-0.9,0.6-1,1.6l-0.4,3.7
	c-0.3,2.6-1.4,4.2-3.7,4.2c-2.7,0-4-2.7-4-6.3c0-2.5,0.5-4.4,2-6.3l2.1,1.3c-1.2,1.7-1.7,3.3-1.7,5.3c0,1.9,0.5,3.3,1.5,3.3
	c0.7,0,1-0.4,1.1-1.4l0.5-4.1c0.3-2.5,1.3-4,3.5-4c2.6,0,3.8,2.6,3.8,5.7c0,2.3-0.4,4.2-1.8,6.1L38,83.7z"/>
<path fill="#FFFFFF" d="M58.4,82.7h4.5v-3.5l-4.5-3.1v-3.2l5.6,3.9l6.5-4.2v3.3l-5.2,3.2v3.6h5.2v2.7H58.4V82.7z"/>
<path fill="#FFFFFF" d="M61,58.3v6.2c0,2.4,1.1,3.8,3.5,3.8c2.4,0,3.5-1.5,3.5-3.8v-6.2h2.8v6.2c0,4-2.4,6.3-6.2,6.3
	c-3.8,0-6.2-2.2-6.2-6.3v-6.2H61z"/>
<path fill="#FFFFFF" d="M85.1,60.8h-4.5v3.5l4.5,3.1v3.2l-5.6-3.9l-6.5,4.2v-3.3l5.2-3.2v-3.6h-5.2v-2.7h12.2V60.8z"/>
<path fill="#FFFFFF" d="M83.7,76.5c-1.4-1-2.9-1.4-4.8-1.4c-2.4,0-2.9,0.6-2.9,1.3c0,0.7,0.6,0.9,1.6,1l3.7,0.4
	c2.6,0.3,4.2,1.4,4.2,3.7c0,2.7-2.7,4-6.3,4c-2.5,0-4.4-0.5-6.3-2l1.3-2.1c1.7,1.2,3.3,1.7,5.3,1.7c1.9,0,3.3-0.5,3.3-1.5
	c0-0.7-0.4-1-1.4-1.1l-4.1-0.5c-2.5-0.3-4-1.3-4-3.5c0-2.6,2.6-3.8,5.7-3.8c2.3,0,4.2,0.4,6.1,1.8L83.7,76.5z"/>
<path fill="#FFFFFF" d="M0.3,111.7h4.5v-3.5l-4.5-3.1V102l5.6,3.9l6.5-4.2v3.3l-5.2,3.2v3.6h5.2v2.7H0.3V111.7z"/>
<path fill="#FFFFFF" d="M2.9,87.3v6.2c0,2.4,1.1,3.8,3.5,3.8c2.4,0,3.5-1.5,3.5-3.8v-6.2h2.8v6.2c0,4-2.4,6.3-6.2,6.3
	c-3.8,0-6.2-2.2-6.2-6.3v-6.2H2.9z"/>
<path fill="#FFFFFF" d="M27,89.9h-4.5v3.5l4.5,3.1v3.2l-5.6-3.9l-6.5,4.2v-3.3l5.2-3.2v-3.6h-5.2v-2.7H27V89.9z"/>
<path fill="#FFFFFF" d="M25.6,105.5c-1.4-1-2.9-1.4-4.8-1.4c-2.4,0-2.9,0.6-2.9,1.3c0,0.7,0.6,0.9,1.6,1l3.7,0.4
	c2.6,0.3,4.2,1.4,4.2,3.7c0,2.7-2.7,4-6.3,4c-2.5,0-4.4-0.5-6.3-2l1.3-2.1c1.7,1.2,3.3,1.7,5.3,1.7c1.9,0,3.3-0.5,3.3-1.5
	c0-0.7-0.4-1-1.4-1.1l-4.1-0.5c-2.5-0.3-4-1.3-4-3.5c0-2.6,2.6-3.8,5.7-3.8c2.3,0,4.2,0.4,6.1,1.8L25.6,105.5z"/>
<path fill="#FFFFFF" d="M60.8,87.5V92h3.5l3.1-4.5h3.2l-3.9,5.6l4.2,6.5h-3.3l-3.2-5.2h-3.6v5.2h-2.7V87.5H60.8z"/>
<path fill="#FFFFFF" d="M85.3,90.1H79c-2.4,0-3.8,1.1-3.8,3.5c0,2.4,1.5,3.5,3.8,3.5h6.2v2.8h-6.2c-4,0-6.3-2.4-6.3-6.2
	c0-3.8,2.2-6.2,6.3-6.2h6.2V90.1z"/>
<path fill="#FFFFFF" d="M82.7,114.2v-4.5h-3.5l-3.1,4.5h-3.2l3.9-5.6l-4.2-6.5h3.3l3.2,5.2h3.6V102h2.7v12.2H82.7z"/>
<path fill="#FFFFFF" d="M67.1,112.7c1-1.4,1.4-2.9,1.4-4.8c0-2.4-0.6-2.9-1.3-2.9c-0.7,0-0.9,0.6-1,1.6l-0.4,3.7
	c-0.3,2.6-1.4,4.2-3.7,4.2c-2.7,0-4-2.7-4-6.3c0-2.5,0.5-4.4,2-6.3l2.1,1.3c-1.2,1.7-1.7,3.3-1.7,5.3c0,1.9,0.5,3.3,1.5,3.3
	c0.7,0,1-0.4,1.1-1.4l0.5-4.1c0.3-2.5,1.3-4,3.5-4c2.6,0,3.8,2.6,3.8,5.7c0,2.3-0.4,4.2-1.8,6.1L67.1,112.7z"/>
<path fill="#FFFFFF" d="M53.6,114.2v-4.5h-3.5l-3.1,4.5h-3.2l3.9-5.6l-4.2-6.5h3.3l3.2,5.2h3.6V102h2.7v12.2H53.6z"/>
<path fill="#FFFFFF" d="M29.2,111.6h6.2c2.4,0,3.8-1.1,3.8-3.5c0-2.4-1.5-3.5-3.8-3.5h-6.2v-2.8h6.2c4,0,6.3,2.4,6.3,6.2
	c0,3.8-2.2,6.2-6.3,6.2h-6.2V111.6z"/>
<path fill="#FFFFFF" d="M31.8,87.5V92h3.5l3.1-4.5h3.2l-3.9,5.6l4.2,6.5h-3.3l-3.2-5.2h-3.6v5.2h-2.7V87.5H31.8z"/>
<path fill="#FFFFFF" d="M47.4,88.9c-1,1.4-1.4,2.9-1.4,4.8c0,2.4,0.6,2.9,1.3,2.9c0.7,0,0.9-0.6,1-1.6l0.4-3.7
	c0.3-2.6,1.4-4.2,3.7-4.2c2.7,0,4,2.7,4,6.3c0,2.5-0.5,4.4-2,6.3l-2.1-1.3c1.2-1.7,1.7-3.3,1.7-5.3c0-1.9-0.5-3.3-1.5-3.3
	c-0.7,0-1,0.4-1.1,1.4l-0.5,4.1c-0.3,2.5-1.3,4-3.5,4c-2.6,0-3.8-2.6-3.8-5.7c0-2.3,0.4-4.2,1.8-6.1L47.4,88.9z"/>
<path fill="#FFFFFF" d="M230.4,2.7h-4.5v3.5l4.5,3.1v3.2l-5.6-3.9l-6.5,4.2V9.5l5.2-3.2V2.7h-5.2V0h12.2V2.7z"/>
<path fill="#FFFFFF" d="M227.8,27.2v-6.2c0-2.4-1.1-3.8-3.5-3.8c-2.4,0-3.5,1.5-3.5,3.8v6.2h-2.8V21c0-4,2.4-6.3,6.2-6.3
	c3.8,0,6.2,2.2,6.2,6.3v6.2H227.8z"/>
<path fill="#FFFFFF" d="M203.7,24.6h4.5V21l-4.5-3.1v-3.2l5.6,3.9l6.5-4.2v3.3l-5.2,3.2v3.6h5.2v2.7h-12.2V24.6z"/>
<path fill="#FFFFFF" d="M205.1,8.9c1.4,1,2.9,1.4,4.8,1.4c2.4,0,2.9-0.6,2.9-1.3c0-0.7-0.6-0.9-1.6-1l-3.7-0.4
	c-2.6-0.3-4.2-1.4-4.2-3.7c0-2.7,2.7-4,6.3-4c2.5,0,4.4,0.5,6.3,2l-1.3,2.1c-1.7-1.2-3.3-1.7-5.3-1.7c-1.9,0-3.3,0.5-3.3,1.5
	c0,0.7,0.4,1,1.4,1.1l4.1,0.5c2.5,0.3,4,1.3,4,3.5c0,2.6-2.6,3.8-5.7,3.8c-2.3,0-4.2-0.4-6.1-1.8L205.1,8.9z"/>
<path fill="#FFFFFF" d="M228,56.1v-4.5h-3.5l-3.1,4.5h-3.2l3.9-5.6l-4.2-6.5h3.3l3.2,5.2h3.6v-5.2h2.7v12.2H228z"/>
<path fill="#FFFFFF" d="M203.5,53.5h6.2c2.4,0,3.8-1.1,3.8-3.5c0-2.4-1.5-3.5-3.8-3.5h-6.2v-2.8h6.2c4,0,6.3,2.4,6.3,6.2
	c0,3.8-2.2,6.2-6.3,6.2h-6.2V53.5z"/>
<path fill="#FFFFFF" d="M206.1,29.4v4.5h3.5l3.1-4.5h3.2L212,35l4.2,6.5h-3.3l-3.2-5.2h-3.6v5.2h-2.7V29.4H206.1z"/>
<path fill="#FFFFFF" d="M221.8,30.8c-1,1.4-1.4,2.9-1.4,4.8c0,2.4,0.6,2.9,1.3,2.9c0.7,0,0.9-0.6,1-1.6l0.4-3.7
	c0.3-2.6,1.4-4.2,3.7-4.2c2.7,0,4,2.7,4,6.3c0,2.5-0.5,4.4-2,6.3l-2.1-1.3c1.2-1.7,1.7-3.3,1.7-5.3c0-1.9-0.5-3.3-1.5-3.3
	c-0.7,0-1,0.4-1.1,1.4l-0.5,4.1c-0.3,2.5-1.3,4-3.5,4c-2.6,0-3.8-2.6-3.8-5.7c0-2.3,0.4-4.2,1.8-6.1L221.8,30.8z"/>
<path fill="#FFFFFF" d="M203.7,82.7h4.5v-3.5l-4.5-3.1v-3.2l5.6,3.9l6.5-4.2v3.3l-5.2,3.2v3.6h5.2v2.7h-12.2V82.7z"/>
<path fill="#FFFFFF" d="M206.3,58.3v6.2c0,2.4,1.1,3.8,3.5,3.8c2.4,0,3.5-1.5,3.5-3.8v-6.2h2.8v6.2c0,4-2.4,6.3-6.2,6.3
	c-3.8,0-6.2-2.2-6.2-6.3v-6.2H206.3z"/>
<path fill="#FFFFFF" d="M230.4,60.8h-4.5v3.5l4.5,3.1v3.2l-5.6-3.9l-6.5,4.2v-3.3l5.2-3.2v-3.6h-5.2v-2.7h12.2V60.8z"/>
<path fill="#FFFFFF" d="M228.9,76.5c-1.4-1-2.9-1.4-4.8-1.4c-2.4,0-2.9,0.6-2.9,1.3c0,0.7,0.6,0.9,1.6,1l3.7,0.4
	c2.6,0.3,4.2,1.4,4.2,3.7c0,2.7-2.7,4-6.3,4c-2.5,0-4.4-0.5-6.3-2l1.3-2.1c1.7,1.2,3.3,1.7,5.3,1.7c1.9,0,3.3-0.5,3.3-1.5
	c0-0.7-0.4-1-1.4-1.1l-4.1-0.5c-2.5-0.3-4-1.3-4-3.5c0-2.6,2.6-3.8,5.7-3.8c2.3,0,4.2,0.4,6.1,1.8L228.9,76.5z"/>
<path fill="#FFFFFF" d="M206.1,87.5V92h3.5l3.1-4.5h3.2l-3.9,5.6l4.2,6.5h-3.3l-3.2-5.2h-3.6v5.2h-2.7V87.5H206.1z"/>
<path fill="#FFFFFF" d="M230.5,90.1h-6.2c-2.4,0-3.8,1.1-3.8,3.5s1.5,3.5,3.8,3.5h6.2v2.8h-6.2c-4,0-6.3-2.4-6.3-6.2
	c0-3.8,2.2-6.2,6.3-6.2h6.2V90.1z"/>
<path fill="#FFFFFF" d="M228,114.2v-4.5h-3.5l-3.1,4.5h-3.2l3.9-5.6l-4.2-6.5h3.3l3.2,5.2h3.6V102h2.7v12.2H228z"/>
<path fill="#FFFFFF" d="M212.3,112.7c1-1.4,1.4-2.9,1.4-4.8c0-2.4-0.6-2.9-1.3-2.9c-0.7,0-0.9,0.6-1,1.6l-0.4,3.7
	c-0.3,2.6-1.4,4.2-3.7,4.2c-2.7,0-4-2.7-4-6.3c0-2.5,0.5-4.4,2-6.3l2.1,1.3c-1.2,1.7-1.7,3.3-1.7,5.3c0,1.9,0.5,3.3,1.5,3.3
	c0.7,0,1-0.4,1.1-1.4l0.5-4.1c0.3-2.5,1.3-4,3.5-4c2.6,0,3.8,2.6,3.8,5.7c0,2.3-0.4,4.2-1.8,6.1L212.3,112.7z"/>
<path fill="#FFFFFF" d="M201.3,89.9h-4.5v3.5l4.5,3.1v3.2l-5.6-3.9l-6.5,4.2v-3.3l5.2-3.2v-3.6h-5.2v-2.7h12.2V89.9z"/>
<path fill="#FFFFFF" d="M198.7,114.3v-6.2c0-2.4-1.1-3.8-3.5-3.8c-2.4,0-3.5,1.5-3.5,3.8v6.2H189v-6.2c0-4,2.4-6.3,6.2-6.3
	c3.8,0,6.2,2.2,6.2,6.3v6.2H198.7z"/>
<path fill="#FFFFFF" d="M174.6,111.7h4.5v-3.5l-4.5-3.1V102l5.6,3.9l6.5-4.2v3.3l-5.2,3.2v3.6h5.2v2.7h-12.2V111.7z"/>
<path fill="#FFFFFF" d="M176.1,96.1c1.4,1,2.9,1.4,4.8,1.4c2.4,0,2.9-0.6,2.9-1.3c0-0.7-0.6-0.9-1.6-1l-3.7-0.4
	c-2.6-0.3-4.2-1.4-4.2-3.7c0-2.7,2.7-4,6.3-4c2.5,0,4.4,0.5,6.3,2l-1.3,2.1c-1.7-1.2-3.3-1.7-5.3-1.7c-1.9,0-3.3,0.5-3.3,1.5
	c0,0.7,0.4,1,1.4,1.1l4.1,0.5c2.5,0.3,4,1.3,4,3.5c0,2.6-2.6,3.8-5.7,3.8c-2.3,0-4.2-0.4-6.1-1.8L176.1,96.1z"/>
<path fill="#FFFFFF" d="M177.1,29.4v4.5h3.5l3.1-4.5h3.2l-3.9,5.6l4.2,6.5h-3.3l-3.2-5.2h-3.6v5.2h-2.7V29.4H177.1z"/>
<path fill="#FFFFFF" d="M201.5,32h-6.2c-2.4,0-3.8,1.1-3.8,3.5c0,2.4,1.5,3.5,3.8,3.5h6.2v2.8h-6.2c-4,0-6.3-2.4-6.3-6.2
	c0-3.8,2.2-6.2,6.3-6.2h6.2V32z"/>
<path fill="#FFFFFF" d="M198.9,56.1v-4.5h-3.5l-3.1,4.5h-3.2l3.9-5.6l-4.2-6.5h3.3l3.2,5.2h3.6v-5.2h2.7v12.2H198.9z"/>
<path fill="#FFFFFF" d="M183.3,54.6c1-1.4,1.4-2.9,1.4-4.8c0-2.4-0.6-2.9-1.3-2.9c-0.7,0-0.9,0.6-1,1.6l-0.4,3.7
	c-0.3,2.6-1.4,4.2-3.7,4.2c-2.7,0-4-2.7-4-6.3c0-2.5,0.5-4.4,2-6.3l2.1,1.3c-1.2,1.7-1.7,3.3-1.7,5.3c0,1.9,0.5,3.3,1.5,3.3
	c0.7,0,1-0.4,1.1-1.4l0.5-4.1c0.3-2.5,1.3-4,3.5-4c2.6,0,3.8,2.6,3.8,5.7c0,2.3-0.4,4.2-1.8,6.1L183.3,54.6z"/>
<path fill="#FFFFFF" d="M174.6,24.6h4.5V21l-4.5-3.1v-3.2l5.6,3.9l6.5-4.2v3.3l-5.2,3.2v3.6h5.2v2.7h-12.2V24.6z"/>
<path fill="#FFFFFF" d="M177.2,0.2v6.2c0,2.4,1.1,3.8,3.5,3.8c2.4,0,3.5-1.5,3.5-3.8V0.2h2.8v6.2c0,4-2.4,6.3-6.2,6.3
	c-3.8,0-6.2-2.2-6.2-6.3V0.2H177.2z"/>
<path fill="#FFFFFF" d="M201.3,2.7h-4.5v3.5l4.5,3.1v3.2l-5.6-3.9l-6.5,4.2V9.5l5.2-3.2V2.7h-5.2V0h12.2V2.7z"/>
<path fill="#FFFFFF" d="M199.9,18.4c-1.4-1-2.9-1.4-4.8-1.4c-2.4,0-2.9,0.6-2.9,1.3c0,0.7,0.6,0.9,1.6,1l3.7,0.4
	c2.6,0.3,4.2,1.4,4.2,3.7c0,2.7-2.7,4-6.3,4c-2.5,0-4.4-0.5-6.3-2l1.3-2.1c1.7,1.2,3.3,1.7,5.3,1.7c1.9,0,3.3-0.5,3.3-1.5
	c0-0.7-0.4-1-1.4-1.1l-4.1-0.5c-2.5-0.3-4-1.3-4-3.5c0-2.6,2.6-3.8,5.7-3.8c2.3,0,4.2,0.4,6.1,1.8L199.9,18.4z"/>
<path fill="#FFFFFF" d="M198.9,85.1v-4.5h-3.5l-3.1,4.5h-3.2l3.9-5.6l-4.2-6.5h3.3l3.2,5.2h3.6v-5.2h2.7v12.2H198.9z"/>
<path fill="#FFFFFF" d="M174.5,82.5h6.2c2.4,0,3.8-1.1,3.8-3.5c0-2.4-1.5-3.5-3.8-3.5h-6.2v-2.8h6.2c4,0,6.3,2.4,6.3,6.2
	c0,3.8-2.2,6.2-6.3,6.2h-6.2V82.5z"/>
<path fill="#FFFFFF" d="M177.1,58.4v4.5h3.5l3.1-4.5h3.2l-3.9,5.6l4.2,6.5h-3.3l-3.2-5.2h-3.6v5.2h-2.7V58.4H177.1z"/>
<path fill="#FFFFFF" d="M192.7,59.9c-1,1.4-1.4,2.9-1.4,4.8c0,2.4,0.6,2.9,1.3,2.9c0.7,0,0.9-0.6,1-1.6l0.4-3.7
	c0.3-2.6,1.4-4.2,3.7-4.2c2.7,0,4,2.7,4,6.3c0,2.5-0.5,4.4-2,6.3l-2.1-1.3c1.2-1.7,1.7-3.3,1.7-5.3c0-1.9-0.5-3.3-1.5-3.3
	c-0.7,0-1,0.4-1.1,1.4l-0.5,4.1c-0.3,2.5-1.3,4-3.5,4c-2.6,0-3.8-2.6-3.8-5.7c0-2.3,0.4-4.2,1.8-6.1L192.7,59.9z"/>
<path fill="#FFFFFF" d="M169.9,27v-4.5h-3.5l-3.1,4.5h-3.2l3.9-5.6l-4.2-6.5h3.3l3.2,5.2h3.6v-5.2h2.7V27H169.9z"/>
<path fill="#FFFFFF" d="M145.4,24.4h6.2c2.4,0,3.8-1.1,3.8-3.5c0-2.4-1.5-3.5-3.8-3.5h-6.2v-2.7h6.2c4,0,6.3,2.4,6.3,6.2
	c0,3.8-2.2,6.2-6.3,6.2h-6.2V24.4z"/>
<path fill="#FFFFFF" d="M148,0.3v4.5h3.5l3.1-4.5h3.2l-3.9,5.6l4.2,6.5h-3.3l-3.2-5.2H148v5.2h-2.7V0.3H148z"/>
<path fill="#FFFFFF" d="M163.6,1.8c-1,1.4-1.4,2.9-1.4,4.8c0,2.4,0.6,2.9,1.3,2.9c0.7,0,0.9-0.6,1-1.6l0.4-3.7
	c0.3-2.6,1.4-4.2,3.7-4.2c2.7,0,4,2.7,4,6.3c0,2.5-0.5,4.4-2,6.3l-2.1-1.3c1.2-1.7,1.7-3.3,1.7-5.3c0-1.9-0.5-3.3-1.5-3.3
	c-0.7,0-1,0.4-1.1,1.4l-0.5,4.1c-0.3,2.5-1.3,4-3.5,4c-2.6,0-3.8-2.6-3.8-5.7c0-2.3,0.4-4.2,1.8-6.1L163.6,1.8z"/>
<path fill="#FFFFFF" d="M145.6,111.7h4.5v-3.5l-4.5-3.1V102l5.6,3.9l6.5-4.2v3.3l-5.2,3.2v3.6h5.2v2.7h-12.2V111.7z"/>
<path fill="#FFFFFF" d="M148.2,87.3v6.2c0,2.4,1.1,3.8,3.5,3.8c2.4,0,3.5-1.5,3.5-3.8v-6.2h2.8v6.2c0,4-2.4,6.3-6.2,6.3
	c-3.8,0-6.2-2.2-6.2-6.3v-6.2H148.2z"/>
<path fill="#FFFFFF" d="M172.3,89.9h-4.5v3.5l4.5,3.1v3.2l-5.6-3.9l-6.5,4.2v-3.3l5.2-3.2v-3.6h-5.2v-2.7h12.2V89.9z"/>
<path fill="#FFFFFF" d="M170.8,105.5c-1.4-1-2.9-1.4-4.8-1.4c-2.4,0-2.9,0.6-2.9,1.3c0,0.7,0.6,0.9,1.6,1l3.7,0.4
	c2.6,0.3,4.2,1.4,4.2,3.7c0,2.7-2.7,4-6.3,4c-2.5,0-4.4-0.5-6.3-2l1.3-2.1c1.7,1.2,3.3,1.7,5.3,1.7c1.9,0,3.3-0.5,3.3-1.5
	c0-0.7-0.4-1-1.4-1.1l-4.1-0.5c-2.5-0.3-4-1.3-4-3.5c0-2.6,2.6-3.8,5.7-3.8c2.3,0,4.2,0.4,6.1,1.8L170.8,105.5z"/>
<path fill="#FFFFFF" d="M140.8,114.2v-4.5h-3.5l-3.1,4.5H131l3.9-5.6l-4.2-6.5h3.3l3.2,5.2h3.6V102h2.7v12.2H140.8z"/>
<path fill="#FFFFFF" d="M116.4,111.6h6.2c2.4,0,3.8-1.1,3.8-3.5c0-2.4-1.5-3.5-3.8-3.5h-6.2v-2.8h6.2c4,0,6.3,2.4,6.3,6.2
	c0,3.8-2.2,6.2-6.3,6.2h-6.2V111.6z"/>
<path fill="#FFFFFF" d="M118.9,87.5V92h3.5l3.1-4.5h3.2l-3.9,5.6l4.2,6.5h-3.3l-3.2-5.2h-3.6v5.2h-2.7V87.5H118.9z"/>
<path fill="#FFFFFF" d="M134.6,88.9c-1,1.4-1.4,2.9-1.4,4.8c0,2.4,0.6,2.9,1.3,2.9c0.7,0,0.9-0.6,1-1.6l0.4-3.7
	c0.3-2.6,1.4-4.2,3.7-4.2c2.7,0,4,2.7,4,6.3c0,2.5-0.5,4.4-2,6.3l-2.1-1.3c1.2-1.7,1.7-3.3,1.7-5.3c0-1.9-0.5-3.3-1.5-3.3
	c-0.7,0-1,0.4-1.1,1.4l-0.5,4.1c-0.3,2.5-1.3,4-3.5,4c-2.6,0-3.8-2.6-3.8-5.7c0-2.3,0.4-4.2,1.8-6.1L134.6,88.9z"/>
<path fill="#FFFFFF" d="M172.3,31.8h-4.5v3.5l4.5,3.1v3.2l-5.6-3.9l-6.5,4.2v-3.3l5.2-3.2v-3.6h-5.2v-2.7h12.2V31.8z"/>
<path fill="#FFFFFF" d="M169.7,56.2V50c0-2.4-1.1-3.8-3.5-3.8c-2.4,0-3.5,1.5-3.5,3.8v6.2H160V50c0-4,2.4-6.3,6.2-6.3
	c3.8,0,6.2,2.2,6.2,6.3v6.2H169.7z"/>
<path fill="#FFFFFF" d="M145.6,53.6h4.5v-3.5l-4.5-3.1v-3.2l5.6,3.9l6.5-4.2v3.3l-5.2,3.2v3.6h5.2v2.7h-12.2V53.6z"/>
<path fill="#FFFFFF" d="M147,38c1.4,1,2.9,1.4,4.8,1.4c2.4,0,2.9-0.6,2.9-1.3c0-0.7-0.6-0.9-1.6-1l-3.7-0.4
	c-2.6-0.3-4.2-1.4-4.2-3.7c0-2.7,2.7-4,6.3-4c2.5,0,4.4,0.5,6.3,2l-1.3,2.1c-1.7-1.2-3.3-1.7-5.3-1.7c-1.9,0-3.3,0.5-3.3,1.5
	c0,0.7,0.4,1,1.4,1.1l4.1,0.5c2.5,0.3,4,1.3,4,3.5c0,2.6-2.6,3.8-5.7,3.8c-2.3,0-4.2-0.4-6.1-1.8L147,38z"/>
<path fill="#FFFFFF" d="M148,58.4v4.5h3.5l3.1-4.5h3.2l-3.9,5.6l4.2,6.5h-3.3l-3.2-5.2H148v5.2h-2.7V58.4H148z"/>
<path fill="#FFFFFF" d="M172.4,61h-6.2c-2.4,0-3.8,1.1-3.8,3.5s1.5,3.5,3.8,3.5h6.2v2.8h-6.2c-4,0-6.3-2.4-6.3-6.2
	c0-3.8,2.2-6.2,6.3-6.2h6.2V61z"/>
<path fill="#FFFFFF" d="M169.9,85.1v-4.5h-3.5l-3.1,4.5h-3.2l3.9-5.6l-4.2-6.5h3.3l3.2,5.2h3.6v-5.2h2.7v12.2H169.9z"/>
<path fill="#FFFFFF" d="M154.2,83.7c1-1.4,1.4-2.9,1.4-4.8c0-2.4-0.6-2.9-1.3-2.9c-0.7,0-0.9,0.6-1,1.6l-0.4,3.7
	c-0.3,2.6-1.4,4.2-3.7,4.2c-2.7,0-4-2.7-4-6.3c0-2.5,0.5-4.4,2-6.3l2.1,1.3c-1.2,1.7-1.7,3.3-1.7,5.3c0,1.9,0.5,3.3,1.5,3.3
	c0.7,0,1-0.4,1.1-1.4l0.5-4.1c0.3-2.5,1.3-4,3.5-4c2.6,0,3.8,2.6,3.8,5.7c0,2.3-0.4,4.2-1.8,6.1L154.2,83.7z"/>
<path fill="#FFFFFF" d="M118.9,0.3v4.5h3.5l3.1-4.5h3.2l-3.9,5.6l4.2,6.5h-3.3l-3.2-5.2h-3.6v5.2h-2.7V0.3H118.9z"/>
<path fill="#FFFFFF" d="M143.4,2.9h-6.2c-2.4,0-3.8,1.1-3.8,3.5c0,2.4,1.5,3.5,3.8,3.5h6.2v2.8h-6.2c-4,0-6.3-2.4-6.3-6.2
	c0-3.8,2.2-6.2,6.3-6.2h6.2V2.9z"/>
<path fill="#FFFFFF" d="M140.8,27v-4.5h-3.5l-3.1,4.5H131l3.9-5.6l-4.2-6.5h3.3l3.2,5.2h3.6v-5.2h2.7V27H140.8z"/>
<path fill="#FFFFFF" d="M125.2,25.6c1-1.4,1.4-2.9,1.4-4.8c0-2.4-0.6-2.9-1.3-2.9c-0.7,0-0.9,0.6-1,1.6l-0.4,3.7
	c-0.3,2.6-1.4,4.2-3.7,4.2c-2.7,0-4-2.7-4-6.3c0-2.5,0.5-4.4,2-6.3l2.1,1.3c-1.2,1.7-1.7,3.3-1.7,5.3c0,1.9,0.5,3.3,1.5,3.3
	c0.7,0,1-0.4,1.1-1.4l0.5-4.1c0.3-2.5,1.3-4,3.5-4c2.6,0,3.8,2.6,3.8,5.7c0,2.3-0.4,4.2-1.8,6.1L125.2,25.6z"/>
<path fill="#FFFFFF" d="M143.2,60.8h-4.5v3.5l4.5,3.1v3.2l-5.6-3.9l-6.5,4.2v-3.3l5.2-3.2v-3.6h-5.2v-2.7h12.2V60.8z"/>
<path fill="#FFFFFF" d="M140.6,85.3V79c0-2.4-1.1-3.8-3.5-3.8c-2.4,0-3.5,1.5-3.5,3.8v6.2h-2.8v-6.2c0-4,2.4-6.3,6.2-6.3
	c3.8,0,6.2,2.2,6.2,6.3v6.2H140.6z"/>
<path fill="#FFFFFF" d="M116.5,82.7h4.5v-3.5l-4.5-3.1v-3.2l5.6,3.9l6.5-4.2v3.3l-5.2,3.2v3.6h5.2v2.7h-12.2V82.7z"/>
<path fill="#FFFFFF" d="M118,67.1c1.4,1,2.9,1.4,4.8,1.4c2.4,0,2.9-0.6,2.9-1.3c0-0.7-0.6-0.9-1.6-1l-3.7-0.4
	c-2.6-0.3-4.2-1.4-4.2-3.7c0-2.7,2.7-4,6.3-4c2.5,0,4.4,0.5,6.3,2l-1.3,2.1c-1.7-1.2-3.3-1.7-5.3-1.7c-1.9,0-3.3,0.5-3.3,1.5
	c0,0.7,0.4,1,1.4,1.1l4.1,0.5c2.5,0.3,4,1.3,4,3.5c0,2.6-2.6,3.8-5.7,3.8c-2.3,0-4.2-0.4-6.1-1.8L118,67.1z"/>
<path fill="#FFFFFF" d="M116.5,53.6h4.5v-3.5l-4.5-3.1v-3.2l5.6,3.9l6.5-4.2v3.3l-5.2,3.2v3.6h5.2v2.7h-12.2V53.6z"/>
<path fill="#FFFFFF" d="M119.1,29.2v6.2c0,2.4,1.1,3.8,3.5,3.8c2.4,0,3.5-1.5,3.5-3.8v-6.2h2.7v6.2c0,4-2.4,6.3-6.2,6.3
	c-3.8,0-6.2-2.2-6.2-6.3v-6.2H119.1z"/>
<path fill="#FFFFFF" d="M143.2,31.8h-4.5v3.5l4.5,3.1v3.2l-5.6-3.9l-6.5,4.2v-3.3l5.2-3.2v-3.6h-5.2v-2.7h12.2V31.8z"/>
<path fill="#FFFFFF" d="M141.8,47.4c-1.4-1-2.9-1.4-4.8-1.4c-2.4,0-2.9,0.6-2.9,1.3c0,0.7,0.6,0.9,1.6,1l3.7,0.4
	c2.6,0.3,4.2,1.4,4.2,3.7c0,2.7-2.7,4-6.3,4c-2.5,0-4.4-0.5-6.3-2l1.3-2.1c1.7,1.2,3.3,1.7,5.3,1.7c1.9,0,3.3-0.5,3.3-1.5
	c0-0.7-0.4-1-1.4-1.1l-4.1-0.5c-2.5-0.3-4-1.3-4-3.5c0-2.6,2.6-3.8,5.7-3.8c2.3,0,4.2,0.4,6.1,1.8L141.8,47.4z"/>
<path fill="#FFFFFF" d="M203.7,169.9h4.5v-3.5l-4.5-3.1v-3.2l5.6,3.9l6.5-4.2v3.3l-5.2,3.2v3.6h5.2v2.7h-12.2V169.9z"/>
<path fill="#FFFFFF" d="M206.3,145.4v6.2c0,2.4,1.1,3.8,3.5,3.8c2.4,0,3.5-1.5,3.5-3.8v-6.2h2.8v6.2c0,4-2.4,6.3-6.2,6.3
	c-3.8,0-6.2-2.2-6.2-6.3v-6.2H206.3z"/>
<path fill="#FFFFFF" d="M230.4,148h-4.5v3.5l4.5,3.1v3.2l-5.6-3.9l-6.5,4.2v-3.3l5.2-3.2V148h-5.2v-2.7h12.2V148z"/>
<path fill="#FFFFFF" d="M228.9,163.6c-1.4-1-2.9-1.4-4.8-1.4c-2.4,0-2.9,0.6-2.9,1.3c0,0.7,0.6,0.9,1.6,1l3.7,0.4
	c2.6,0.3,4.2,1.4,4.2,3.7c0,2.7-2.7,4-6.3,4c-2.5,0-4.4-0.5-6.3-2l1.3-2.1c1.7,1.2,3.3,1.7,5.3,1.7c1.9,0,3.3-0.5,3.3-1.5
	c0-0.7-0.4-1-1.4-1.1l-4.1-0.5c-2.5-0.3-4-1.3-4-3.5c0-2.6,2.6-3.8,5.7-3.8c2.3,0,4.2,0.4,6.1,1.8L228.9,163.6z"/>
<path fill="#FFFFFF" d="M118.9,145.6v4.5h3.5l3.1-4.5h3.2l-3.9,5.6l4.2,6.5h-3.3l-3.2-5.2h-3.6v5.2h-2.7v-12.2H118.9z"/>
<path fill="#FFFFFF" d="M143.4,148.2h-6.2c-2.4,0-3.8,1.1-3.8,3.5c0,2.4,1.5,3.5,3.8,3.5h6.2v2.8h-6.2c-4,0-6.3-2.4-6.3-6.2
	c0-3.8,2.2-6.2,6.3-6.2h6.2V148.2z"/>
<path fill="#FFFFFF" d="M140.8,172.3v-4.5h-3.5l-3.1,4.5H131l3.9-5.6l-4.2-6.5h3.3l3.2,5.2h3.6v-5.2h2.7v12.2H140.8z"/>
<path fill="#FFFFFF" d="M125.2,170.8c1-1.4,1.4-2.9,1.4-4.8c0-2.4-0.6-2.9-1.3-2.9c-0.7,0-0.9,0.6-1,1.6l-0.4,3.7
	c-0.3,2.6-1.4,4.2-3.7,4.2c-2.7,0-4-2.7-4-6.3c0-2.5,0.5-4.4,2-6.3l2.1,1.3c-1.2,1.7-1.7,3.3-1.7,5.3c0,1.9,0.5,3.3,1.5,3.3
	c0.7,0,1-0.4,1.1-1.4l0.5-4.1c0.3-2.5,1.3-4,3.5-4c2.6,0,3.8,2.6,3.8,5.7c0,2.3-0.4,4.2-1.8,6.1L125.2,170.8z"/>
<path fill="#FFFFFF" d="M116.5,140.8h4.5v-3.5l-4.5-3.1V131l5.6,3.9l6.5-4.2v3.3l-5.2,3.2v3.6h5.2v2.7h-12.2V140.8z"/>
<path fill="#FFFFFF" d="M119.1,116.4v6.2c0,2.4,1.1,3.8,3.5,3.8c2.4,0,3.5-1.5,3.5-3.8v-6.2h2.8v6.2c0,4-2.4,6.3-6.2,6.3
	c-3.8,0-6.2-2.2-6.2-6.3v-6.2H119.1z"/>
<path fill="#FFFFFF" d="M143.2,118.9h-4.5v3.5l4.5,3.1v3.2l-5.6-3.9l-6.5,4.2v-3.3l5.2-3.2v-3.6h-5.2v-2.7h12.2V118.9z"/>
<path fill="#FFFFFF" d="M141.8,134.6c-1.4-1-2.9-1.4-4.8-1.4c-2.4,0-2.9,0.6-2.9,1.3c0,0.7,0.6,0.9,1.6,1l3.7,0.4
	c2.6,0.3,4.2,1.4,4.2,3.7c0,2.7-2.7,4-6.3,4c-2.5,0-4.4-0.5-6.3-2l1.3-2.1c1.7,1.2,3.3,1.7,5.3,1.7c1.9,0,3.3-0.5,3.3-1.5
	c0-0.7-0.4-1-1.4-1.1l-4.1-0.5c-2.5-0.3-4-1.3-4-3.5c0-2.6,2.6-3.8,5.7-3.8c2.3,0,4.2,0.4,6.1,1.8L141.8,134.6z"/>
<path fill="#FFFFFF" d="M198.9,172.3v-4.5h-3.5l-3.1,4.5h-3.2l3.9-5.6l-4.2-6.5h3.3l3.2,5.2h3.6v-5.2h2.7v12.2H198.9z"/>
<path fill="#FFFFFF" d="M174.5,169.7h6.2c2.4,0,3.8-1.1,3.8-3.5c0-2.4-1.5-3.5-3.8-3.5h-6.2V160h6.2c4,0,6.3,2.4,6.3,6.2
	c0,3.8-2.2,6.2-6.3,6.2h-6.2V169.7z"/>
<path fill="#FFFFFF" d="M177.1,145.6v4.5h3.5l3.1-4.5h3.2l-3.9,5.6l4.2,6.5h-3.3l-3.2-5.2h-3.6v5.2h-2.7v-12.2H177.1z"/>
<path fill="#FFFFFF" d="M192.7,147c-1,1.4-1.4,2.9-1.4,4.8c0,2.4,0.6,2.9,1.3,2.9c0.7,0,0.9-0.6,1-1.6l0.4-3.7
	c0.3-2.6,1.4-4.2,3.7-4.2c2.7,0,4,2.7,4,6.3c0,2.5-0.5,4.4-2,6.3l-2.1-1.3c1.2-1.7,1.7-3.3,1.7-5.3c0-1.9-0.5-3.3-1.5-3.3
	c-0.7,0-1,0.4-1.1,1.4l-0.5,4.1c-0.3,2.5-1.3,4-3.5,4c-2.6,0-3.8-2.6-3.8-5.7c0-2.3,0.4-4.2,1.8-6.1L192.7,147z"/>
<path fill="#FFFFFF" d="M172.3,148h-4.5v3.5l4.5,3.1v3.2l-5.6-3.9l-6.5,4.2v-3.3l5.2-3.2V148h-5.2v-2.7h12.2V148z"/>
<path fill="#FFFFFF" d="M169.7,172.4v-6.2c0-2.4-1.1-3.8-3.5-3.8c-2.4,0-3.5,1.5-3.5,3.8v6.2H160v-6.2c0-4,2.4-6.3,6.2-6.3
	c3.8,0,6.2,2.2,6.2,6.3v6.2H169.7z"/>
<path fill="#FFFFFF" d="M145.6,169.9h4.5v-3.5l-4.5-3.1v-3.2l5.6,3.9l6.5-4.2v3.3l-5.2,3.2v3.6h5.2v2.7h-12.2V169.9z"/>
<path fill="#FFFFFF" d="M147,154.2c1.4,1,2.9,1.4,4.8,1.4c2.4,0,2.9-0.6,2.9-1.3c0-0.7-0.6-0.9-1.6-1l-3.7-0.4
	c-2.6-0.3-4.2-1.4-4.2-3.7c0-2.7,2.7-4,6.3-4c2.5,0,4.4,0.5,6.3,2l-1.3,2.1c-1.7-1.2-3.3-1.7-5.3-1.7c-1.9,0-3.3,0.5-3.3,1.5
	c0,0.7,0.4,1,1.4,1.1l4.1,0.5c2.5,0.3,4,1.3,4,3.5c0,2.6-2.6,3.8-5.7,3.8c-2.3,0-4.2-0.4-6.1-1.8L147,154.2z"/>
<path fill="#FFFFFF" d="M230.4,118.9h-4.5v3.5l4.5,3.1v3.2l-5.6-3.9l-6.5,4.2v-3.3l5.2-3.2v-3.6h-5.2v-2.7h12.2V118.9z"/>
<path fill="#FFFFFF" d="M227.8,143.4v-6.2c0-2.4-1.1-3.8-3.5-3.8c-2.4,0-3.5,1.5-3.5,3.8v6.2h-2.8v-6.2c0-4,2.4-6.3,6.2-6.3
	c3.8,0,6.2,2.2,6.2,6.3v6.2H227.8z"/>
<path fill="#FFFFFF" d="M203.7,140.8h4.5v-3.5l-4.5-3.1V131l5.6,3.9l6.5-4.2v3.3l-5.2,3.2v3.6h5.2v2.7h-12.2V140.8z"/>
<path fill="#FFFFFF" d="M205.1,125.2c1.4,1,2.9,1.4,4.8,1.4c2.4,0,2.9-0.6,2.9-1.3c0-0.7-0.6-0.9-1.6-1l-3.7-0.4
	c-2.6-0.3-4.2-1.4-4.2-3.7c0-2.7,2.7-4,6.3-4c2.5,0,4.4,0.5,6.3,2l-1.3,2.1c-1.7-1.2-3.3-1.7-5.3-1.7c-1.9,0-3.3,0.5-3.3,1.5
	c0,0.7,0.4,1,1.4,1.1l4.1,0.5c2.5,0.3,4,1.3,4,3.5c0,2.6-2.6,3.8-5.7,3.8c-2.3,0-4.2-0.4-6.1-1.8L205.1,125.2z"/>
<path fill="#FFFFFF" d="M169.9,143.2v-4.5h-3.5l-3.1,4.5h-3.2l3.9-5.6l-4.2-6.5h3.3l3.2,5.2h3.6v-5.2h2.7v12.2H169.9z"/>
<path fill="#FFFFFF" d="M145.4,140.6h6.2c2.4,0,3.8-1.1,3.8-3.5c0-2.4-1.5-3.5-3.8-3.5h-6.2v-2.8h6.2c4,0,6.3,2.4,6.3,6.2
	c0,3.8-2.2,6.2-6.3,6.2h-6.2V140.6z"/>
<path fill="#FFFFFF" d="M148,116.5v4.5h3.5l3.1-4.5h3.2l-3.9,5.6l4.2,6.5h-3.3l-3.2-5.2H148v5.2h-2.7v-12.2H148z"/>
<path fill="#FFFFFF" d="M163.6,118c-1,1.4-1.4,2.9-1.4,4.8c0,2.4,0.6,2.9,1.3,2.9c0.7,0,0.9-0.6,1-1.6l0.4-3.7
	c0.3-2.6,1.4-4.2,3.7-4.2c2.7,0,4,2.7,4,6.3c0,2.5-0.5,4.4-2,6.3l-2.1-1.3c1.2-1.7,1.7-3.3,1.7-5.3c0-1.9-0.5-3.3-1.5-3.3
	c-0.7,0-1,0.4-1.1,1.4l-0.5,4.1c-0.3,2.5-1.3,4-3.5,4c-2.6,0-3.8-2.6-3.8-5.7c0-2.3,0.4-4.2,1.8-6.1L163.6,118z"/>
<path fill="#FFFFFF" d="M177.1,116.5v4.5h3.5l3.1-4.5h3.2l-3.9,5.6l4.2,6.5h-3.3l-3.2-5.2h-3.6v5.2h-2.7v-12.2H177.1z"/>
<path fill="#FFFFFF" d="M201.5,119.1h-6.2c-2.4,0-3.8,1.1-3.8,3.5c0,2.4,1.5,3.5,3.8,3.5h6.2v2.8h-6.2c-4,0-6.3-2.4-6.3-6.2
	c0-3.8,2.2-6.2,6.3-6.2h6.2V119.1z"/>
<path fill="#FFFFFF" d="M198.9,143.2v-4.5h-3.5l-3.1,4.5h-3.2l3.9-5.6l-4.2-6.5h3.3l3.2,5.2h3.6v-5.2h2.7v12.2H198.9z"/>
<path fill="#FFFFFF" d="M183.3,141.8c1-1.4,1.4-2.9,1.4-4.8c0-2.4-0.6-2.9-1.3-2.9c-0.7,0-0.9,0.6-1,1.6l-0.4,3.7
	c-0.3,2.6-1.4,4.2-3.7,4.2c-2.7,0-4-2.7-4-6.3c0-2.5,0.5-4.4,2-6.3l2.1,1.3c-1.2,1.7-1.7,3.3-1.7,5.3c0,1.9,0.5,3.3,1.5,3.3
	c0.7,0,1-0.4,1.1-1.4l0.5-4.1c0.3-2.5,1.3-4,3.5-4c2.6,0,3.8,2.6,3.8,5.7c0,2.3-0.4,4.2-1.8,6.1L183.3,141.8z"/>
<path fill="#FFFFFF" d="M27,148h-4.5v3.5l4.5,3.1v3.2l-5.6-3.9l-6.5,4.2v-3.3l5.2-3.2V148h-5.2v-2.7H27V148z"/>
<path fill="#FFFFFF" d="M24.4,172.4v-6.2c0-2.4-1.1-3.8-3.5-3.8c-2.4,0-3.5,1.5-3.5,3.8v6.2h-2.8v-6.2c0-4,2.4-6.3,6.2-6.3
	c3.8,0,6.2,2.2,6.2,6.3v6.2H24.4z"/>
<path fill="#FFFFFF" d="M0.3,169.9h4.5v-3.5l-4.5-3.1v-3.2l5.6,3.9l6.5-4.2v3.3l-5.2,3.2v3.6h5.2v2.7H0.3V169.9z"/>
<path fill="#FFFFFF" d="M1.8,154.2c1.4,1,2.9,1.4,4.8,1.4c2.4,0,2.9-0.6,2.9-1.3c0-0.7-0.6-0.9-1.6-1l-3.7-0.4
	c-2.6-0.3-4.2-1.4-4.2-3.7c0-2.7,2.7-4,6.3-4c2.5,0,4.4,0.5,6.3,2l-1.3,2.1c-1.7-1.2-3.3-1.7-5.3-1.7c-1.9,0-3.3,0.5-3.3,1.5
	c0,0.7,0.4,1,1.4,1.1l4.1,0.5c2.5,0.3,4,1.3,4,3.5c0,2.6-2.6,3.8-5.7,3.8c-2.3,0-4.2-0.4-6.1-1.8L1.8,154.2z"/>
<path fill="#FFFFFF" d="M24.6,143.2v-4.5H21l-3.1,4.5h-3.2l3.9-5.6l-4.2-6.5h3.3l3.2,5.2h3.6v-5.2h2.7v12.2H24.6z"/>
<path fill="#FFFFFF" d="M0.2,140.6h6.2c2.4,0,3.8-1.1,3.8-3.5c0-2.4-1.5-3.5-3.8-3.5H0.2v-2.8h6.2c4,0,6.3,2.4,6.3,6.2
	c0,3.8-2.2,6.2-6.3,6.2H0.2V140.6z"/>
<path fill="#FFFFFF" d="M2.7,116.5v4.5h3.5l3.1-4.5h3.2l-3.9,5.6l4.2,6.5H9.5l-3.2-5.2H2.7v5.2H0v-12.2H2.7z"/>
<path fill="#FFFFFF" d="M18.4,118c-1,1.4-1.4,2.9-1.4,4.8c0,2.4,0.6,2.9,1.3,2.9c0.7,0,0.9-0.6,1-1.6l0.4-3.7
	c0.3-2.6,1.4-4.2,3.7-4.2c2.7,0,4,2.7,4,6.3c0,2.5-0.5,4.4-2,6.3l-2.1-1.3c1.2-1.7,1.7-3.3,1.7-5.3c0-1.9-0.5-3.3-1.5-3.3
	c-0.7,0-1,0.4-1.1,1.4l-0.5,4.1c-0.3,2.5-1.3,4-3.5,4c-2.6,0-3.8-2.6-3.8-5.7c0-2.3,0.4-4.2,1.8-6.1L18.4,118z"/>
<path fill="#FFFFFF" d="M29.4,140.8h4.5v-3.5l-4.5-3.1V131l5.6,3.9l6.5-4.2v3.3l-5.2,3.2v3.6h5.2v2.7H29.4V140.8z"/>
<path fill="#FFFFFF" d="M32,116.4v6.2c0,2.4,1.1,3.8,3.5,3.8s3.5-1.5,3.5-3.8v-6.2h2.8v6.2c0,4-2.4,6.3-6.2,6.3
	c-3.8,0-6.2-2.2-6.2-6.3v-6.2H32z"/>
<path fill="#FFFFFF" d="M56.1,118.9h-4.5v3.5l4.5,3.1v3.2l-5.6-3.9l-6.5,4.2v-3.3l5.2-3.2v-3.6h-5.2v-2.7h12.2V118.9z"/>
<path fill="#FFFFFF" d="M54.6,134.6c-1.4-1-2.9-1.4-4.8-1.4c-2.4,0-2.9,0.6-2.9,1.3c0,0.7,0.6,0.9,1.6,1l3.7,0.4
	c2.6,0.3,4.2,1.4,4.2,3.7c0,2.7-2.7,4-6.3,4c-2.5,0-4.4-0.5-6.3-2l1.3-2.1c1.7,1.2,3.3,1.7,5.3,1.7c1.9,0,3.3-0.5,3.3-1.5
	c0-0.7-0.4-1-1.4-1.1l-4.1-0.5c-2.5-0.3-4-1.3-4-3.5c0-2.6,2.6-3.8,5.7-3.8c2.3,0,4.2,0.4,6.1,1.8L54.6,134.6z"/>
<path fill="#FFFFFF" d="M31.8,145.6v4.5h3.5l3.1-4.5h3.2l-3.9,5.6l4.2,6.5h-3.3l-3.2-5.2h-3.6v5.2h-2.7v-12.2H31.8z"/>
<path fill="#FFFFFF" d="M56.2,148.2H50c-2.4,0-3.8,1.1-3.8,3.5c0,2.4,1.5,3.5,3.8,3.5h6.2v2.8H50c-4,0-6.3-2.4-6.3-6.2
	c0-3.8,2.2-6.2,6.3-6.2h6.2V148.2z"/>
<path fill="#FFFFFF" d="M53.6,172.3v-4.5h-3.5l-3.1,4.5h-3.2l3.9-5.6l-4.2-6.5h3.3l3.2,5.2h3.6v-5.2h2.7v12.2H53.6z"/>
<path fill="#FFFFFF" d="M38,170.8c1-1.4,1.4-2.9,1.4-4.8c0-2.4-0.6-2.9-1.3-2.9c-0.7,0-0.9,0.6-1,1.6l-0.4,3.7
	c-0.3,2.6-1.4,4.2-3.7,4.2c-2.7,0-4-2.7-4-6.3c0-2.5,0.5-4.4,2-6.3l2.1,1.3c-1.2,1.7-1.7,3.3-1.7,5.3c0,1.9,0.5,3.3,1.5,3.3
	c0.7,0,1-0.4,1.1-1.4l0.5-4.1c0.3-2.5,1.3-4,3.5-4c2.6,0,3.8,2.6,3.8,5.7c0,2.3-0.4,4.2-1.8,6.1L38,170.8z"/>
<path fill="#FFFFFF" d="M85.1,118.9h-4.5v3.5l4.5,3.1v3.2l-5.6-3.9l-6.5,4.2v-3.3l5.2-3.2v-3.6h-5.2v-2.7h12.2V118.9z"/>
<path fill="#FFFFFF" d="M82.5,143.4v-6.2c0-2.4-1.1-3.8-3.5-3.8c-2.4,0-3.5,1.5-3.5,3.8v6.2h-2.8v-6.2c0-4,2.4-6.3,6.2-6.3
	c3.8,0,6.2,2.2,6.2,6.3v6.2H82.5z"/>
<path fill="#FFFFFF" d="M58.4,140.8h4.5v-3.5l-4.5-3.1V131l5.6,3.9l6.5-4.2v3.3l-5.2,3.2v3.6h5.2v2.7H58.4V140.8z"/>
<path fill="#FFFFFF" d="M59.9,125.2c1.4,1,2.9,1.4,4.8,1.4c2.4,0,2.9-0.6,2.9-1.3c0-0.7-0.6-0.9-1.6-1l-3.7-0.4
	c-2.6-0.3-4.2-1.4-4.2-3.7c0-2.7,2.7-4,6.3-4c2.5,0,4.4,0.5,6.3,2l-1.3,2.1c-1.7-1.2-3.3-1.7-5.3-1.7c-1.9,0-3.3,0.5-3.3,1.5
	c0,0.7,0.4,1,1.4,1.1l4.1,0.5c2.5,0.3,4,1.3,4,3.5c0,2.6-2.6,3.8-5.7,3.8c-2.3,0-4.2-0.4-6.1-1.8L59.9,125.2z"/>
<path fill="#FFFFFF" d="M89.9,116.5v4.5h3.5l3.1-4.5h3.2l-3.9,5.6l4.2,6.5h-3.3l-3.2-5.2h-3.6v5.2h-2.7v-12.2H89.9z"/>
<path fill="#FFFFFF" d="M114.3,119.1h-6.2c-2.4,0-3.8,1.1-3.8,3.5c0,2.4,1.5,3.5,3.8,3.5h6.2v2.8h-6.2c-4,0-6.3-2.4-6.3-6.2
	c0-3.8,2.2-6.2,6.3-6.2h6.2V119.1z"/>
<path fill="#FFFFFF" d="M111.7,143.2v-4.5h-3.5l-3.1,4.5H102l3.9-5.6l-4.2-6.5h3.3l3.2,5.2h3.6v-5.2h2.7v12.2H111.7z"/>
<path fill="#FFFFFF" d="M96.1,141.8c1-1.4,1.4-2.9,1.4-4.8c0-2.4-0.6-2.9-1.3-2.9c-0.7,0-0.9,0.6-1,1.6l-0.4,3.7
	c-0.3,2.6-1.4,4.2-3.7,4.2c-2.7,0-4-2.7-4-6.3c0-2.5,0.5-4.4,2-6.3l2.1,1.3c-1.2,1.7-1.7,3.3-1.7,5.3c0,1.9,0.5,3.3,1.5,3.3
	c0.7,0,1-0.4,1.1-1.4l0.5-4.1c0.3-2.5,1.3-4,3.5-4c2.6,0,3.8,2.6,3.8,5.7c0,2.3-0.4,4.2-1.8,6.1L96.1,141.8z"/>
<path fill="#FFFFFF" d="M82.7,172.3v-4.5h-3.5l-3.1,4.5h-3.2l3.9-5.6l-4.2-6.5h3.3l3.2,5.2h3.6v-5.2h2.7v12.2H82.7z"/>
<path fill="#FFFFFF" d="M58.3,169.7h6.2c2.4,0,3.8-1.1,3.8-3.5c0-2.4-1.5-3.5-3.8-3.5h-6.2V160h6.2c4,0,6.3,2.4,6.3,6.2
	c0,3.8-2.2,6.2-6.3,6.2h-6.2V169.7z"/>
<path fill="#FFFFFF" d="M60.8,145.6v4.5h3.5l3.1-4.5h3.2l-3.9,5.6l4.2,6.5h-3.3l-3.2-5.2h-3.6v5.2h-2.7v-12.2H60.8z"/>
<path fill="#FFFFFF" d="M76.5,147c-1,1.4-1.4,2.9-1.4,4.8c0,2.4,0.6,2.9,1.3,2.9c0.7,0,0.9-0.6,1-1.6l0.4-3.7
	c0.3-2.6,1.4-4.2,3.7-4.2c2.7,0,4,2.7,4,6.3c0,2.5-0.5,4.4-2,6.3l-2.1-1.3c1.2-1.7,1.7-3.3,1.7-5.3c0-1.9-0.5-3.3-1.5-3.3
	c-0.7,0-1,0.4-1.1,1.4l-0.5,4.1c-0.3,2.5-1.3,4-3.5,4c-2.6,0-3.8-2.6-3.8-5.7c0-2.3,0.4-4.2,1.8-6.1L76.5,147z"/>
<path fill="#FFFFFF" d="M87.5,169.9H92v-3.5l-4.5-3.1v-3.2l5.6,3.9l6.5-4.2v3.3l-5.2,3.2v3.6h5.2v2.7H87.5V169.9z"/>
<path fill="#FFFFFF" d="M90.1,145.4v6.2c0,2.4,1.1,3.8,3.5,3.8c2.4,0,3.5-1.5,3.5-3.8v-6.2h2.8v6.2c0,4-2.4,6.3-6.2,6.3
	c-3.8,0-6.2-2.2-6.2-6.3v-6.2H90.1z"/>
<path fill="#FFFFFF" d="M114.2,148h-4.5v3.5l4.5,3.1v3.2l-5.6-3.9l-6.5,4.2v-3.3l5.2-3.2V148H102v-2.7h12.2V148z"/>
<path fill="#FFFFFF" d="M112.7,163.6c-1.4-1-2.9-1.4-4.8-1.4c-2.4,0-2.9,0.6-2.9,1.3c0,0.7,0.6,0.9,1.6,1l3.7,0.4
	c2.6,0.3,4.2,1.4,4.2,3.7c0,2.7-2.7,4-6.3,4c-2.5,0-4.4-0.5-6.3-2l1.3-2.1c1.7,1.2,3.3,1.7,5.3,1.7c1.9,0,3.3-0.5,3.3-1.5
	c0-0.7-0.4-1-1.4-1.1l-4.1-0.5c-2.5-0.3-4-1.3-4-3.5c0-2.6,2.6-3.8,5.7-3.8c2.3,0,4.2,0.4,6.1,1.8L112.7,163.6z"/>
</svg>
