<?xml version="1.0" encoding="utf-8"?>
<!-- Generator: Adobe Illustrator 20.1.0, SVG Export Plug-In . SVG Version: 6.00 Build 0)  -->
<svg version="1.1" id="Capa_1" xmlns="http://www.w3.org/2000/svg" xmlns:xlink="http://www.w3.org/1999/xlink" x="0px" y="0px"
	 viewBox="384.4 -123.6 86.2 79.1" enable-background="new 384.4 -123.6 86.2 79.1" xml:space="preserve">
<g>
	<path d="M465.4-89.2h-2.2v-13.2c0-5.4-4.4-9.8-9.8-9.8h-2l0-4.9c0-3.6-2.9-6.6-6.6-6.6h-52.5c-4.4,0-7.9,3.5-8,7.9c0,0,0,0.1,0,0.1
		v64.5c0,3.6,2.9,6.6,6.6,6.6h62.5c5.4,0,9.8-4.4,9.8-9.8v-13.2h2.2c2.8,0,5.1-2.3,5.1-5.1V-84C470.6-86.9,468.3-89.2,465.4-89.2z
		 M392.4-119h52.5c1.1,0,2,0.9,2,2l0,4.9h-54.5c-1.9,0-3.5-1.5-3.5-3.5C389-117.5,390.5-119,392.4-119z M458.7-54.3
		c0,2.9-2.3,5.2-5.2,5.2H391c-1.1,0-2-0.9-2-2v-57.3c1.1,0.5,2.2,0.8,3.5,0.8h61.1c2.9,0,5.2,2.3,5.2,5.2v13.2h-15.5
		c-2.8,0-5.1,2.3-5.1,5.1v11.5c0,2.8,2.3,5.1,5.1,5.1h15.5V-54.3z M466-72.6c0,0.3-0.3,0.6-0.6,0.6h-22.2c-0.3,0-0.6-0.3-0.6-0.6
		V-84c0-0.3,0.3-0.6,0.6-0.6h22.2c0.3,0,0.6,0.3,0.6,0.6V-72.6L466-72.6z"/>
</g>
<circle cx="460.3" cy="-78.2" r="2.3"/>
</svg>
