<?xml version="1.0" encoding="utf-8"?>
<!-- Generator: Adobe Illustrator 20.1.0, SVG Export Plug-In . SVG Version: 6.00 Build 0)  -->
<svg version="1.1" id="Capa_1" xmlns="http://www.w3.org/2000/svg" xmlns:xlink="http://www.w3.org/1999/xlink" x="0px" y="0px"
	 viewBox="245.7 17.5 110 75" enable-background="new 245.7 17.5 110 75" xml:space="preserve">
<path d="M335.6,72.3c-2.7,0-5.2,1.1-7.2,3c-1.9,1.9-3,4.4-3,7.1s1.1,5.2,3,7.1c1.9,1.9,4.5,3,7.2,3c5.5,0,10-4.5,10-10.1
	S341.1,72.3,335.6,72.3z M335.6,88c-3.1,0-5.7-2.6-5.7-5.6s2.6-5.6,5.7-5.6c3,0,5.5,2.5,5.5,5.6S338.7,88,335.6,88z M338.2,38.8
	c-0.4-0.4-0.9-0.6-1.5-0.6h-11.5c-1.2,0-2.2,1-2.2,2.2v18.4c0,1.2,1,2.2,2.2,2.2h18.2c1.2,0,2.2-1,2.2-2.2V46.5
	c0-0.6-0.3-1.2-0.7-1.7L338.2,38.8z M341.2,56.5h-13.8V42.6h8.4l5.4,4.8V56.5z M280.9,72.3c-2.7,0-5.2,1.1-7.2,3
	c-1.9,1.9-3,4.4-3,7.1s1.1,5.2,3,7.1c1.9,1.9,4.5,3,7.2,3c5.5,0,10-4.5,10-10.1S286.4,72.3,280.9,72.3z M280.9,88
	c-3.1,0-5.7-2.6-5.7-5.6s2.6-5.6,5.7-5.6c3,0,5.5,2.5,5.5,5.6S284,88,280.9,88z M266,75.1h-4.5v-6c0-1.2-1-2.2-2.2-2.2
	c-1.2,0-2.2,1-2.2,2.2v8.2c0,1.2,1,2.2,2.2,2.2h6.7c1.2,0,2.2-1,2.2-2.2C268.2,76.1,267.2,75.1,266,75.1z M277.3,62.9
	c0-1.2-1-2.2-2.2-2.2h-27.2c-1.2,0-2.2,1-2.2,2.2c0,1.2,1,2.2,2.2,2.2h27.2C276.3,65.1,277.3,64.1,277.3,62.9z M252.5,54.8l27.2,0.2
	c1.2,0,2.2-1,2.3-2.2c0-1.3-1-2.3-2.2-2.3l-27.2-0.2c0,0,0,0,0,0c-1.2,0-2.2,1-2.2,2.2C250.2,53.8,251.2,54.8,252.5,54.8z M257,44.6
	h27.2c1.2,0,2.2-1,2.2-2.2c0-1.2-1-2.2-2.2-2.2H257c-1.2,0-2.2,1-2.2,2.2C254.8,43.6,255.8,44.6,257,44.6z M354.9,41.6L354.9,41.6
	l-16-13.3c-0.4-0.3-0.9-0.5-1.4-0.5h-18.9v-8.1c0-1.2-1-2.2-2.2-2.2h-57c-1.2,0-2.2,1-2.2,2.2v16.4c0,1.2,1,2.2,2.2,2.2
	c1.2,0,2.2-1,2.2-2.2V22h52.6v53.1h-18.4c-1.2,0-2.2,1-2.2,2.2c0,1.2,1,2.2,2.2,2.2H323c1.2,0,2.2-1,2.2-2.2c0-1.2-1-2.2-2.2-2.2
	h-4.5V32.3h18.1l14.6,12.1L351,75h-2.3c-1.2,0-2.2,1-2.2,2.2c0,1.2,1,2.2,2.2,2.2h4.5c1.2,0,2.2-1,2.2-2.2l0.2-34
	C355.7,42.7,355.4,42,354.9,41.6z"/>
</svg>
