<?xml version="1.0" encoding="utf-8"?>
<!-- Generator: Adobe Illustrator 20.1.0, SVG Export Plug-In . SVG Version: 6.00 Build 0)  -->
<svg version="1.1" id="Слой_1" xmlns="http://www.w3.org/2000/svg" xmlns:xlink="http://www.w3.org/1999/xlink" x="0px" y="0px"
	 viewBox="0 0 51.6 51.6" enable-background="new 0 0 51.6 51.6" xml:space="preserve">
<g>
	<circle fill="none" stroke="#FFFFFF" stroke-width="3.5" stroke-miterlimit="10" cx="25.8" cy="25.8" r="24"/>
	<path fill="#FFFFFF" d="M37.8,28.5c1.1,1.1,2.3,2.1,3.3,3.3c0.4,0.5,0.9,1.1,1.2,1.7c0.5,0.9,0,1.9-0.7,1.9l-4.9,0
		c-1.3,0.1-2.3-0.4-3.1-1.3c-0.7-0.7-1.3-1.4-2-2.1c-0.3-0.3-0.6-0.6-0.9-0.8c-0.7-0.4-1.3-0.3-1.6,0.4c-0.4,0.7-0.5,1.5-0.5,2.3
		c-0.1,1.2-0.4,1.5-1.6,1.5c-2.5,0.1-4.8-0.3-7-1.5c-1.9-1.1-3.4-2.7-4.7-4.4c-2.5-3.4-4.5-7.2-6.2-11.1c-0.4-0.9-0.1-1.3,0.9-1.4
		c1.6,0,3.2,0,4.8,0c0.7,0,1.1,0.4,1.3,1c0.9,2.1,1.9,4.2,3.3,6.1c0.4,0.5,0.7,1,1.2,1.4c0.6,0.4,1,0.3,1.3-0.4
		c0.2-0.4,0.2-0.8,0.3-1.3c0.1-1.5,0.1-3-0.1-4.4c-0.1-0.9-0.7-1.5-1.6-1.7c-0.5-0.1-0.4-0.3-0.2-0.5c0.4-0.5,0.8-0.8,1.5-0.8l5.6,0
		c0.9,0.2,1.1,0.6,1.2,1.4l0,6.2c0,0.3,0.2,1.4,0.8,1.6c0.5,0.2,0.8-0.2,1.1-0.5c1.3-1.4,2.3-3.1,3.1-4.8c0.4-0.8,0.7-1.6,1-2.3
		c0.2-0.6,0.6-0.9,1.3-0.9l5.4,0c0.2,0,0.3,0,0.5,0c0.9,0.2,1.1,0.5,0.9,1.4c-0.4,1.4-1.3,2.5-2.1,3.7c-0.9,1.2-1.8,2.4-2.7,3.7
		C36.7,27,36.8,27.5,37.8,28.5z"/>
</g>
</svg>
