<?xml version="1.0" encoding="utf-8"?>
<!-- Generator: Adobe Illustrator 20.1.0, SVG Export Plug-In . SVG Version: 6.00 Build 0)  -->
<svg version="1.1" id="Capa_1" xmlns="http://www.w3.org/2000/svg" xmlns:xlink="http://www.w3.org/1999/xlink" x="0px" y="0px"
	 viewBox="522.2 -123.6 95.9 79.1" enable-background="new 522.2 -123.6 95.9 79.1" xml:space="preserve">
<g>
	<g>
		<path d="M609.5-100.2h-10.5V-115c0-4.7-3.9-8.6-8.6-8.6h-59.7c-4.7,0-8.6,3.9-8.6,8.6v38.6c0,4.7,3.9,8.6,8.6,8.6h10.5v14.8
			c0,4.7,3.9,8.6,8.6,8.6h59.7c4.7,0,8.6-3.9,8.6-8.6v-38.6C618.1-96.4,614.3-100.2,609.5-100.2z M527.1-115c0-2,1.7-3.7,3.7-3.7
			h59.7c2,0,3.7,1.7,3.7,3.7v3.4h-67.1V-115z M541.3-91.6v18.9h-10.5c-2,0-3.7-1.7-3.7-3.7v-18.8h15C541.6-94.2,541.3-93,541.3-91.6
			z M527.1-100.2v-6.5h67.1v6.4h-44.3c-0.2,0-0.3,0-0.5,0H527.1z M609.5-49.4h-59.7c-2,0-3.7-1.7-3.7-3.7v-38.6
			c0-1.9,1.5-3.5,3.4-3.7h47.1c0.1,0,0.2,0,0.3,0h12.7c2,0,3.7,1.7,3.7,3.7v38.6l0,0C613.2-51.1,611.6-49.4,609.5-49.4z"/>
	</g>
</g>
<g>
	<g>
		<path d="M588.3-85.9c-3,0-5.7,1-7.9,2.8c-2.2-1.8-5-2.8-7.9-2.8c-7,0-12.6,5.7-12.6,12.6c0,7,5.7,12.6,12.6,12.6
			c2.9,0,5.7-1,7.9-2.8c2.2,1.7,4.9,2.8,7.9,2.8c7,0,12.6-5.7,12.6-12.6C600.9-80.2,595.3-85.9,588.3-85.9z M577.1-67.5
			c-1.3,1-2.9,1.6-4.6,1.6c-4.1,0-7.4-3.3-7.4-7.4c0-4.1,3.3-7.4,7.4-7.4c1.7,0,3.3,0.6,4.6,1.6c-0.9,1.7-1.4,3.7-1.4,5.8
			C575.6-71.2,576.1-69.2,577.1-67.5z M588.3-65.9c-4.1,0-7.4-3.3-7.4-7.4c0-4.1,3.3-7.4,7.4-7.4c4.1,0,7.4,3.3,7.4,7.4
			C595.7-69.2,592.4-65.9,588.3-65.9z"/>
	</g>
</g>
</svg>
