<?xml version="1.0" encoding="utf-8"?>
<!-- Generator: Adobe Illustrator 20.1.0, SVG Export Plug-In . SVG Version: 6.00 Build 0)  -->
<svg version="1.1" id="Слой_1" xmlns="http://www.w3.org/2000/svg" xmlns:xlink="http://www.w3.org/1999/xlink" x="0px" y="0px"
	 viewBox="0 0 51.8 51.8" enable-background="new 0 0 51.8 51.8" xml:space="preserve">
<g>
	<g>
		<path fill="#292929" d="M25.9,51.8C11.6,51.8,0,40.2,0,25.9S11.6,0,25.9,0c14.3,0,25.9,11.6,25.9,25.9S40.2,51.8,25.9,51.8z
			 M25.9,3.5C13.6,3.5,3.5,13.6,3.5,25.9s10.1,22.4,22.4,22.4c12.4,0,22.4-10.1,22.4-22.4S38.3,3.5,25.9,3.5z"/>
	</g>
	<g>
		<path fill="#292929" d="M32.6,16.2h-3.5c-0.6,0-1.4,0.3-1.4,1.5V21h4.9L32,26.6h-4.3v15.8h-6.5V26.6H18V21h3.1v-3.6
			c0-2.6,1.2-6.6,6.6-6.6l4.8,0V16.2z"/>
	</g>
</g>
</svg>
