<?xml version="1.0" encoding="utf-8"?>
<!-- Generator: Adobe Illustrator 20.1.0, SVG Export Plug-In . SVG Version: 6.00 Build 0)  -->
<svg version="1.1" id="Слой_1" xmlns="http://www.w3.org/2000/svg" xmlns:xlink="http://www.w3.org/1999/xlink" x="0px" y="0px"
	 viewBox="0 0 48.5 48.5" enable-background="new 0 0 48.5 48.5" xml:space="preserve">
<g>
	<path fill="#FFFFFF" d="M24.2,48.5c-5.7,0-12.2-0.4-15.9-1c-2-0.3-3.7-1.1-5-2.3c-1.2-1.3-2.1-3-2.4-5c-0.6-3.7-1-10.3-1-15.9
		C0,18.6,0.4,12,1,8.3c0.3-2,1.1-3.7,2.3-5c1.3-1.2,3-2,5-2.4C12,0.4,18.6,0,24.3,0c5.7,0,12.2,0.4,15.9,1c2,0.3,3.7,1.1,5,2.3
		c1.2,1.3,2.1,3,2.4,5c0.6,3.7,1,10.2,1,15.9c0,5.7-0.4,12.2-1,15.9c-0.3,2.1-1.1,3.8-2.4,5c-1.2,1.2-3,2-5,2.3
		C36.5,48.1,29.9,48.5,24.2,48.5z M24.3,3.5c-5.5,0-11.8,0.4-15.4,0.9C7.6,4.6,6.5,5.1,5.8,5.8c-0.7,0.7-1.2,1.8-1.4,3
		c-0.5,3.5-0.9,9.9-0.9,15.4c0,5.5,0.4,11.9,0.9,15.4c0.2,1.3,0.7,2.4,1.4,3.1c0.7,0.7,1.8,1.2,3,1.4c3.5,0.5,9.9,0.9,15.4,0.9
		c5.5,0,11.8-0.4,15.4-0.9c1.3-0.2,2.4-0.7,3.1-1.4l0,0c0.7-0.7,1.2-1.7,1.4-3c0.5-3.5,0.9-9.9,0.9-15.4c0-5.5-0.4-11.9-0.9-15.4
		c-0.2-1.3-0.7-2.4-1.4-3.1c-0.7-0.7-1.8-1.2-3-1.4C36.1,3.9,29.8,3.5,24.3,3.5z"/>
</g>
<g>
	<path fill="#FFFFFF" d="M24.3,37.2c-7.1,0-12.9-5.8-12.9-12.9c0-7.1,5.8-12.9,12.9-12.9c7.1,0,12.9,5.8,12.9,12.9l0,0
		C37.2,31.4,31.4,37.2,24.3,37.2z M24.3,14.8c-5.2,0-9.4,4.2-9.4,9.4c0,5.2,4.2,9.4,9.4,9.4c5.2,0,9.4-4.2,9.4-9.4
		C33.7,19,29.4,14.8,24.3,14.8z"/>
</g>
<g>
	<circle fill="#FFFFFF" cx="37.7" cy="10.7" r="2.7"/>
</g>
</svg>
