<?xml version="1.0" encoding="utf-8"?>
<!-- Generator: Adobe Illustrator 20.1.0, SVG Export Plug-In . SVG Version: 6.00 Build 0)  -->
<svg version="1.1" id="Слой_1" xmlns="http://www.w3.org/2000/svg" xmlns:xlink="http://www.w3.org/1999/xlink" x="0px" y="0px"
	 viewBox="0 0 185 174.9" enable-background="new 0 0 185 174.9" xml:space="preserve">
<g>
	<path fill="none" stroke="#000000" stroke-width="4" stroke-miterlimit="10" d="M50.3,65.5C50.3,30.4,69.2,2,92.5,2
		c23.3,0,42.2,28.4,42.2,63.5"/>
	<circle fill="none" stroke="#000000" stroke-width="4" stroke-miterlimit="10" cx="50.3" cy="75.4" r="9.8"/>
	<circle fill="none" stroke="#000000" stroke-width="4" stroke-miterlimit="10" cx="134.7" cy="75.4" r="9.8"/>
</g>
<path fill="none" stroke="#000000" stroke-width="4" stroke-miterlimit="10" d="M92.5,172.9c70.2,0,96.8-19.2,89.3-42.5l-15.2-59
	V44.4c0-2.5-2-4.5-4.5-4.5H23c-2.5,0-4.5,2-4.5,4.5v26.9l-15.2,59C-4.3,153.7,22.3,172.9,92.5,172.9z"/>
<g>
	<path fill="none" stroke="#000000" stroke-width="4" stroke-miterlimit="10" d="M166.1,102.9c-19.4,14-45.2,22.5-73.6,22.5
		s-54.2-8.5-73.6-22.5"/>
</g>
<path fill="none" stroke="#000000" stroke-width="4" stroke-miterlimit="10" d="M106.9,125.4v8c0,7.9-6.4,14.3-14.3,14.3l0,0
	c-7.9,0-14.3-6.4-14.3-14.3v-8"/>
</svg>
