<?xml version="1.0" encoding="utf-8"?>
<!-- Generator: Adobe Illustrator 20.1.0, SVG Export Plug-In . SVG Version: 6.00 Build 0)  -->
<svg version="1.1" id="Capa_1" xmlns="http://www.w3.org/2000/svg" xmlns:xlink="http://www.w3.org/1999/xlink" x="0px" y="0px"
	 viewBox="371.4 7.6 78.1 84.9" enable-background="new 371.4 7.6 78.1 84.9" xml:space="preserve">
<g>
	<path d="M449.5,27.6c0-0.3-0.1-0.6-0.2-0.9c-0.3-0.6-0.8-1-1.5-1.1L411.3,7.8c-0.6-0.3-1.3-0.3-1.9,0l-36.8,17.9
		c-0.7,0.3-1.2,1.1-1.2,1.9v0c0,0,0,0,0,0.1v44.8c0,0.8,0.5,1.6,1.2,1.9l36.8,17.9c0,0,0,0,0,0c0.1,0,0.1,0,0.2,0.1c0,0,0,0,0.1,0
		c0.1,0,0.1,0,0.2,0.1c0,0,0,0,0.1,0c0.1,0,0.1,0,0.2,0c0,0,0,0,0.1,0c0.1,0,0.2,0,0.2,0c0.1,0,0.2,0,0.2,0c0,0,0,0,0.1,0
		c0.1,0,0.1,0,0.2,0c0,0,0,0,0.1,0c0.1,0,0.1,0,0.2-0.1c0,0,0,0,0.1,0c0.1,0,0.1,0,0.2-0.1c0,0,0,0,0,0l37-17.9
		c0.7-0.4,1.2-1.1,1.2-1.9L449.5,27.6C449.5,27.7,449.5,27.6,449.5,27.6z M410.4,12.1l32,15.5l-11.8,5.7l-32-15.5L410.4,12.1z
		 M410.4,43.1l-32-15.5l15.3-7.4l32,15.5L410.4,43.1z M375.7,31.1l32.6,15.8v40l-32.6-15.8V31.1z M412.5,86.9v-40l15.3-7.4v10.5
		c0,1.2,1,2.1,2.2,2.1c1.2,0,2.1-1,2.1-2.1V37.4l13.1-6.3v40L412.5,86.9z"/>
</g>
</svg>
