<?xml version="1.0" encoding="utf-8"?>
<!-- Generator: Adobe Illustrator 20.1.0, SVG Export Plug-In . SVG Version: 6.00 Build 0)  -->
<svg version="1.1" id="Layer_1" xmlns="http://www.w3.org/2000/svg" xmlns:xlink="http://www.w3.org/1999/xlink" x="0px" y="0px"
	 viewBox="0 0 2806.3 516.4" enable-background="new 0 0 2806.3 516.4" xml:space="preserve">
<polygon fill="#FFFFFF" points="473.7,502.2 244.3,267.3 119.1,355.3 119.1,502.2 0,502.2 0,12.2 119.1,12.2 119.1,240.3 
	441.9,12.2 605.7,12.2 334.3,204.4 630.1,502.2 "/>
<path fill="#FFFFFF" d="M1239.5,408.8c-13.8,22.1-33.4,41.1-58.9,56.8c-25.5,15.8-56.5,28.2-93.1,37.2c-36.5,9-77.8,13.5-123.8,13.5
	c-46,0-87.3-4.5-123.8-13.5c-36.5-9-67.6-21.4-93.1-37.2c-25.5-15.8-45.1-34.7-58.9-56.8c-13.8-22.1-20.6-46-20.6-71.7V12.2h119.1
	v308.6c0,30.2,15.3,54.6,46,73.1c30.7,18.5,74.4,27.7,131.3,27.7c56.8,0,100.6-9.4,131.3-28.1c30.7-18.7,46-43,46-72.8V12.2h119.1
	V337C1260.1,362.7,1253.3,386.7,1239.5,408.8"/>
<polygon fill="#FFFFFF" points="2047,502.2 1817.5,267.3 1692.3,355.3 1692.3,502.2 1573.2,502.2 1573.2,12.2 1692.3,12.2 
	1692.3,240.3 2015.2,12.2 2178.9,12.2 1907.6,204.4 2203.3,502.2 "/>
<path fill="#FFFFFF" d="M2616.1,108.6c-35.2-8.8-72-13.2-110.3-13.2c-51.4,0-90.1,4.6-116.1,13.9c-25.9,9.3-38.9,21.8-38.9,37.6
	c0,16.7,14.2,28.4,42.6,35.2c11.7,2.7,24.4,4.7,37.9,6.1c13.5,1.4,28.1,2.4,43.7,3c15.6,0.7,32,1.4,49.4,2
	c17.4,0.7,35.5,1.9,54.5,3.7c38.3,3.6,71.7,8.8,100.2,15.6c28.4,6.8,52.1,15.9,71.1,27.4c19,11.5,33,25.8,42.3,43
	c9.2,17.2,13.9,37.7,13.9,61.6c0,53.2-24.3,94.7-72.8,124.5c-48.5,29.8-119.7,44.7-213.5,44.7c-61.4,0-118-7.2-169.9-21.7
	c-51.9-14.4-101.3-37.9-148.2-70.4l65-79.9c42.4,25.7,84.6,44.8,126.6,57.2c42,12.4,85.9,18.6,132,18.6c49.6,0,87.7-6.3,114.4-18.9
	c26.6-12.6,39.9-29.1,39.9-49.4c0-10.8-3.8-19.2-11.5-25c-7.7-5.9-18.7-10.4-33.2-13.5c-14.4-3.1-32-5.2-52.8-6.1
	c-20.8-0.9-44.2-2-70.4-3.4c-47.8-1.8-89.6-5.8-125.2-11.8c-35.6-6.1-65.3-14.9-89-26.4c-23.7-11.5-41.4-25.9-53.1-43.3
	c-11.7-17.4-17.6-38.2-17.6-62.6c0-48.3,23.2-86.5,69.7-114.7C2343.2,14.1,2411.1,0,2500.4,0c119.6,0,215.7,23.9,288.3,71.7
	l-67.7,78.5C2686.3,131.3,2651.3,117.4,2616.1,108.6"/>
<rect x="1360.7" y="12.2" fill="#FFFFFF" width="119.1" height="245"/>
</svg>
