<svg xmlns="http://www.w3.org/2000/svg" style="display:none"><symbol id="icon-bag" viewBox="0 0 19.4 25.8"><path fill="none" stroke="#FFF" stroke-width="2" stroke-miterlimit="10" d="M1 7.4h17.4v17.4H1z"/><path fill="none" stroke="#FFF" stroke-width="2" stroke-miterlimit="10" d="M5.2 10.6V5.5C5.2 3 7.2 1 9.7 1s4.5 2 4.5 4.5v5.1"/></symbol><symbol id="icon-box" viewBox="371.4 7.6 78.1 84.9"><path d="M449.5 27.6c0-.3-.1-.6-.2-.9-.3-.6-.8-1-1.5-1.1L411.3 7.8c-.6-.3-1.3-.3-1.9 0l-36.8 17.9c-.7.3-1.2 1.1-1.2 1.9v44.9c0 .8.5 1.6 1.2 1.9l36.8 17.9c.1 0 .1 0 .2.1h.1c.1 0 .1 0 .2.1H411.1c.1 0 .1 0 .2-.1h.1c.1 0 .1 0 .2-.1l37-17.9c.7-.4 1.2-1.1 1.2-1.9l-.3-44.9c0 .1 0 0 0 0zm-39.1-15.5l32 15.5-11.8 5.7-32-15.5 11.8-5.7zm0 31l-32-15.5 15.3-7.4 32 15.5-15.3 7.4zm-34.7-12l32.6 15.8v40l-32.6-15.8v-40zm36.8 55.8v-40l15.3-7.4V50c0 1.2 1 2.1 2.2 2.1 1.2 0 2.1-1 2.1-2.1V37.4l13.1-6.3v40l-32.7 15.8z"/></symbol><symbol id="icon-cap" viewBox="475.9 20.7 110 68.7"><path d="M475.9 54.8l.1 16.3c0 .6.3 1.2.7 1.6.4.4.9.5 1.4.5h.2l26.7-2.7 12.5 8.7c9.5 6.7 20.7 10.1 32.2 10.1h1.9c12.3-.4 23.8-4.7 33.4-12.3.6-.4.8-1.1.8-1.8-.1-.7-.5-1.3-1.1-1.7l-22.5-12.3-5.2-17.8c-2.1-7.2-6.8-13.4-13-17.5-6.3-4.1-13.8-5.9-21.2-5l-18.9 2.3c-16.1 1.9-28.1 15.5-28 31.6zm35.5 15l48.6-5 19.8 10.8c-17.8 12.5-41.9 12.7-59.9.1l-8.5-5.9zm-31.3-15c-.1-14 10.3-25.8 24.2-27.5l18.9-2.3c13.4-1.6 25.9 6.6 29.7 19.5l2.3 7.6-14 1.5c-1.2.1-2 1.2-1.9 2.3.1 1.1 1 1.9 2.1 1.9h.2l14.7-1.6 1.3 4.5-77.6 8 .1-13.9z"/><path d="M533 56.7c.1 1.1 1 1.9 2.1 1.9h.2c1.2-.1 2-1.2 1.9-2.3-.1-1.2-1.2-2-2.3-1.9-1.1.1-2 1.2-1.9 2.3z"/></symbol><symbol id="icon-card" viewBox="522.2 -123.6 95.9 79.1"><path d="M609.5-100.2H599V-115c0-4.7-3.9-8.6-8.6-8.6h-59.7c-4.7 0-8.6 3.9-8.6 8.6v38.6c0 4.7 3.9 8.6 8.6 8.6h10.5V-53c0 4.7 3.9 8.6 8.6 8.6h59.7c4.7 0 8.6-3.9 8.6-8.6v-38.6c0-4.8-3.8-8.6-8.6-8.6zM527.1-115c0-2 1.7-3.7 3.7-3.7h59.7c2 0 3.7 1.7 3.7 3.7v3.4h-67.1v-3.4zm14.2 23.4v18.9h-10.5c-2 0-3.7-1.7-3.7-3.7v-18.8h15c-.5 1-.8 2.2-.8 3.6zm-14.2-8.6v-6.5h67.1v6.4h-67.1zm82.4 50.8h-59.7c-2 0-3.7-1.7-3.7-3.7v-38.6c0-1.9 1.5-3.5 3.4-3.7H609.6c2 0 3.7 1.7 3.7 3.7v38.6c-.1 2-1.7 3.7-3.8 3.7z"/><path d="M588.3-85.9c-3 0-5.7 1-7.9 2.8-2.2-1.8-5-2.8-7.9-2.8-7 0-12.6 5.7-12.6 12.6 0 7 5.7 12.6 12.6 12.6 2.9 0 5.7-1 7.9-2.8 2.2 1.7 4.9 2.8 7.9 2.8 7 0 12.6-5.7 12.6-12.6 0-6.9-5.6-12.6-12.6-12.6zm-11.2 18.4c-1.3 1-2.9 1.6-4.6 1.6-4.1 0-7.4-3.3-7.4-7.4 0-4.1 3.3-7.4 7.4-7.4 1.7 0 3.3.6 4.6 1.6-.9 1.7-1.4 3.7-1.4 5.8-.1 2.1.4 4.1 1.4 5.8zm11.2 1.6c-4.1 0-7.4-3.3-7.4-7.4 0-4.1 3.3-7.4 7.4-7.4 4.1 0 7.4 3.3 7.4 7.4 0 4.1-3.3 7.4-7.4 7.4z"/></symbol><symbol id="icon-fb" viewBox="0 0 51.8 51.8"><path d="M25.9 51.8C11.6 51.8 0 40.2 0 25.9S11.6 0 25.9 0c14.3 0 25.9 11.6 25.9 25.9S40.2 51.8 25.9 51.8zm0-48.3C13.6 3.5 3.5 13.6 3.5 25.9s10.1 22.4 22.4 22.4c12.4 0 22.4-10.1 22.4-22.4S38.3 3.5 25.9 3.5z"/><path d="M32.6 16.2h-3.5c-.6 0-1.4.3-1.4 1.5V21h4.9l-.6 5.6h-4.3v15.8h-6.5V26.6H18V21h3.1v-3.6c0-2.6 1.2-6.6 6.6-6.6h4.8v5.4z"/></symbol><symbol id="icon-insta" viewBox="0 0 48.5 48.5"><path d="M24.2 48.5c-5.7 0-12.2-.4-15.9-1-2-.3-3.7-1.1-5-2.3-1.2-1.3-2.1-3-2.4-5-.6-3.7-1-10.3-1-15.9C0 18.6.4 12 1 8.3c.3-2 1.1-3.7 2.3-5 1.3-1.2 3-2 5-2.4C12 .4 18.6 0 24.3 0 30 0 36.5.4 40.2 1c2 .3 3.7 1.1 5 2.3 1.2 1.3 2.1 3 2.4 5 .6 3.7 1 10.2 1 15.9 0 5.7-.4 12.2-1 15.9-.3 2.1-1.1 3.8-2.4 5-1.2 1.2-3 2-5 2.3-3.7.7-10.3 1.1-16 1.1zm.1-45c-5.5 0-11.8.4-15.4.9-1.3.2-2.4.7-3.1 1.4-.7.7-1.2 1.8-1.4 3-.5 3.5-.9 9.9-.9 15.4s.4 11.9.9 15.4c.2 1.3.7 2.4 1.4 3.1.7.7 1.8 1.2 3 1.4 3.5.5 9.9.9 15.4.9s11.8-.4 15.4-.9c1.3-.2 2.4-.7 3.1-1.4.7-.7 1.2-1.7 1.4-3 .5-3.5.9-9.9.9-15.4s-.4-11.9-.9-15.4c-.2-1.3-.7-2.4-1.4-3.1-.7-.7-1.8-1.2-3-1.4-3.6-.5-9.9-.9-15.4-.9z"/><path d="M24.3 37.2c-7.1 0-12.9-5.8-12.9-12.9 0-7.1 5.8-12.9 12.9-12.9 7.1 0 12.9 5.8 12.9 12.9 0 7.1-5.8 12.9-12.9 12.9zm0-22.4c-5.2 0-9.4 4.2-9.4 9.4s4.2 9.4 9.4 9.4 9.4-4.2 9.4-9.4-4.3-9.4-9.4-9.4z"/><circle cx="37.7" cy="10.7" r="2.7"/></symbol><symbol id="icon-man" viewBox="0 0 15.5 25.1"><circle fill="none" stroke="#FFF" stroke-width="2" stroke-miterlimit="10" cx="7.8" cy="6" r="5"/><path fill="none" stroke="#FFF" stroke-width="2" stroke-miterlimit="10" d="M12.8 24.1c1 0 2-.9 1.7-2.2l-1.7-6.1c-.2-1-1.1-1.6-2.1-1.6H4.9c-1 0-1.9.6-2.1 1.6L1 21.9c-.3 1.3.7 2.2 1.7 2.2h10.1z"/></symbol><symbol id="icon-truck" viewBox="245.7 17.5 110 75"><path d="M335.6 72.3c-2.7 0-5.2 1.1-7.2 3-1.9 1.9-3 4.4-3 7.1s1.1 5.2 3 7.1c1.9 1.9 4.5 3 7.2 3 5.5 0 10-4.5 10-10.1s-4.5-10.1-10-10.1zm0 15.7c-3.1 0-5.7-2.6-5.7-5.6s2.6-5.6 5.7-5.6c3 0 5.5 2.5 5.5 5.6s-2.4 5.6-5.5 5.6zm2.6-49.2c-.4-.4-.9-.6-1.5-.6h-11.5c-1.2 0-2.2 1-2.2 2.2v18.4c0 1.2 1 2.2 2.2 2.2h18.2c1.2 0 2.2-1 2.2-2.2V46.5c0-.6-.3-1.2-.7-1.7l-6.7-6zm3 17.7h-13.8V42.6h8.4l5.4 4.8v9.1zm-60.3 15.8c-2.7 0-5.2 1.1-7.2 3-1.9 1.9-3 4.4-3 7.1s1.1 5.2 3 7.1c1.9 1.9 4.5 3 7.2 3 5.5 0 10-4.5 10-10.1s-4.5-10.1-10-10.1zm0 15.7c-3.1 0-5.7-2.6-5.7-5.6s2.6-5.6 5.7-5.6c3 0 5.5 2.5 5.5 5.6S284 88 280.9 88zM266 75.1h-4.5v-6c0-1.2-1-2.2-2.2-2.2-1.2 0-2.2 1-2.2 2.2v8.2c0 1.2 1 2.2 2.2 2.2h6.7c1.2 0 2.2-1 2.2-2.2 0-1.2-1-2.2-2.2-2.2zm11.3-12.2c0-1.2-1-2.2-2.2-2.2h-27.2c-1.2 0-2.2 1-2.2 2.2 0 1.2 1 2.2 2.2 2.2h27.2c1.2 0 2.2-1 2.2-2.2zm-24.8-8.1l27.2.2c1.2 0 2.2-1 2.3-2.2 0-1.3-1-2.3-2.2-2.3l-27.2-.2c-1.2 0-2.2 1-2.2 2.2-.2 1.3.8 2.3 2.1 2.3zm4.5-10.2h27.2c1.2 0 2.2-1 2.2-2.2 0-1.2-1-2.2-2.2-2.2H257c-1.2 0-2.2 1-2.2 2.2 0 1.2 1 2.2 2.2 2.2zm97.9-3l-16-13.3c-.4-.3-.9-.5-1.4-.5h-18.9v-8.1c0-1.2-1-2.2-2.2-2.2h-57c-1.2 0-2.2 1-2.2 2.2v16.4c0 1.2 1 2.2 2.2 2.2 1.2 0 2.2-1 2.2-2.2V22h52.6v53.1h-18.4c-1.2 0-2.2 1-2.2 2.2 0 1.2 1 2.2 2.2 2.2H323c1.2 0 2.2-1 2.2-2.2 0-1.2-1-2.2-2.2-2.2h-4.5V32.3h18.1l14.6 12.1L351 75h-2.3c-1.2 0-2.2 1-2.2 2.2 0 1.2 1 2.2 2.2 2.2h4.5c1.2 0 2.2-1 2.2-2.2l.2-34c.1-.5-.2-1.2-.7-1.6z"/></symbol><symbol id="icon-vk" viewBox="0 0 51.6 51.6"><path d="M25.8 51.6C11.6 51.6 0 40 0 25.8 0 11.6 11.6 0 25.8 0 40 0 51.6 11.6 51.6 25.8 51.6 40 40 51.6 25.8 51.6zm0-48.1c-12.3 0-22.3 10-22.3 22.3s10 22.3 22.3 22.3 22.3-10 22.3-22.3-10-22.3-22.3-22.3z"/><path d="M37.8 28.5c1.1 1.1 2.3 2.1 3.3 3.3.4.5.9 1.1 1.2 1.7.5.9 0 1.9-.7 1.9h-4.9c-1.3.1-2.3-.4-3.1-1.3-.7-.7-1.3-1.4-2-2.1-.3-.3-.6-.6-.9-.8-.7-.4-1.3-.3-1.6.4-.4.7-.5 1.5-.5 2.3-.1 1.2-.4 1.5-1.6 1.5-2.5.1-4.8-.3-7-1.5-1.9-1.1-3.4-2.7-4.7-4.4-2.5-3.4-4.5-7.2-6.2-11.1-.4-.9-.1-1.3.9-1.4h4.8c.7 0 1.1.4 1.3 1 .9 2.1 1.9 4.2 3.3 6.1.4.5.7 1 1.2 1.4.6.4 1 .3 1.3-.4.2-.4.2-.8.3-1.3.1-1.5.1-3-.1-4.4-.1-.9-.7-1.5-1.6-1.7-.5-.1-.4-.3-.2-.5.4-.5.8-.8 1.5-.8h5.6c.9.2 1.1.6 1.2 1.4V24c0 .3.2 1.4.8 1.6.5.2.8-.2 1.1-.5 1.3-1.4 2.3-3.1 3.1-4.8.4-.8.7-1.6 1-2.3.2-.6.6-.9 1.3-.9h5.9c.9.2 1.1.5.9 1.4-.4 1.4-1.3 2.5-2.1 3.7-.9 1.2-1.8 2.4-2.7 3.7-1.2 1.1-1.1 1.6-.1 2.6z"/></symbol><symbol id="icon-wallet" viewBox="384.4 -123.6 86.2 79.1"><path d="M465.4-89.2h-2.2v-13.2c0-5.4-4.4-9.8-9.8-9.8h-2v-4.9c0-3.6-2.9-6.6-6.6-6.6h-52.5c-4.4 0-7.9 3.5-8 7.9v64.6c0 3.6 2.9 6.6 6.6 6.6h62.5c5.4 0 9.8-4.4 9.8-9.8v-13.2h2.2c2.8 0 5.1-2.3 5.1-5.1V-84c.1-2.9-2.2-5.2-5.1-5.2zm-73-29.8h52.5c1.1 0 2 .9 2 2v4.9h-54.5c-1.9 0-3.5-1.5-3.5-3.5.1-1.9 1.6-3.4 3.5-3.4zm66.3 64.7c0 2.9-2.3 5.2-5.2 5.2H391c-1.1 0-2-.9-2-2v-57.3c1.1.5 2.2.8 3.5.8h61.1c2.9 0 5.2 2.3 5.2 5.2v13.2h-15.5c-2.8 0-5.1 2.3-5.1 5.1v11.5c0 2.8 2.3 5.1 5.1 5.1h15.5v13.2zm7.3-18.3c0 .3-.3.6-.6.6h-22.2c-.3 0-.6-.3-.6-.6V-84c0-.3.3-.6.6-.6h22.2c.3 0 .6.3.6.6v11.4z"/><circle cx="460.3" cy="-78.2" r="2.3"/></symbol></svg>