<svg xmlns="http://www.w3.org/2000/svg" style="display:none"><symbol id="icon-bag" viewBox="0 0 19.4 25.8"><path fill="none" stroke="#FFF" stroke-width="2" stroke-miterlimit="10" d="M1 7.4h17.4v17.4H1z"/><path fill="none" stroke="#FFF" stroke-width="2" stroke-miterlimit="10" d="M5.2 10.6V5.5C5.2 3 7.2 1 9.7 1s4.5 2 4.5 4.5v5.1"/></symbol><symbol id="icon-fb--gray" viewBox="0 0 51.8 51.8"><path fill="#292929" d="M25.9 51.8C11.6 51.8 0 40.2 0 25.9S11.6 0 25.9 0c14.3 0 25.9 11.6 25.9 25.9S40.2 51.8 25.9 51.8zm0-48.3C13.6 3.5 3.5 13.6 3.5 25.9s10.1 22.4 22.4 22.4c12.4 0 22.4-10.1 22.4-22.4S38.3 3.5 25.9 3.5z"/><path fill="#292929" d="M32.6 16.2h-3.5c-.6 0-1.4.3-1.4 1.5V21h4.9l-.6 5.6h-4.3v15.8h-6.5V26.6H18V21h3.1v-3.6c0-2.6 1.2-6.6 6.6-6.6h4.8v5.4z"/></symbol><symbol id="icon-fb" viewBox="0 0 51.8 51.8"><path fill="#FFF" d="M25.9 51.8C11.6 51.8 0 40.2 0 25.9S11.6 0 25.9 0c14.3 0 25.9 11.6 25.9 25.9S40.2 51.8 25.9 51.8zm0-48.3C13.6 3.5 3.5 13.6 3.5 25.9s10.1 22.4 22.4 22.4c12.4 0 22.4-10.1 22.4-22.4S38.3 3.5 25.9 3.5z"/><path fill="#FFF" d="M32.6 16.2h-3.5c-.6 0-1.4.3-1.4 1.5V21h4.9l-.6 5.6h-4.3v15.8h-6.5V26.6H18V21h3.1v-3.6c0-2.6 1.2-6.6 6.6-6.6h4.8v5.4z"/></symbol><symbol id="icon-insta--gray" viewBox="0 0 48.5 48.5"><path fill="#292929" d="M24.2 48.5c-5.7 0-12.2-.4-15.9-1-2-.3-3.7-1.1-5-2.3-1.2-1.3-2.1-3-2.4-5-.6-3.7-1-10.3-1-15.9C0 18.6.4 12 1 8.3c.3-2 1.1-3.7 2.3-5 1.3-1.2 3-2 5-2.4C12 .4 18.6 0 24.3 0 30 0 36.5.4 40.2 1c2 .3 3.7 1.1 5 2.3 1.2 1.3 2.1 3 2.4 5 .6 3.7 1 10.2 1 15.9 0 5.7-.4 12.2-1 15.9-.3 2.1-1.1 3.8-2.4 5-1.2 1.2-3 2-5 2.3-3.7.7-10.3 1.1-16 1.1zm.1-45c-5.5 0-11.8.4-15.4.9-1.3.2-2.4.7-3.1 1.4-.7.7-1.2 1.8-1.4 3-.5 3.5-.9 9.9-.9 15.4s.4 11.9.9 15.4c.2 1.3.7 2.4 1.4 3.1.7.7 1.8 1.2 3 1.4 3.5.5 9.9.9 15.4.9s11.8-.4 15.4-.9c1.3-.2 2.4-.7 3.1-1.4.7-.7 1.2-1.7 1.4-3 .5-3.5.9-9.9.9-15.4s-.4-11.9-.9-15.4c-.2-1.3-.7-2.4-1.4-3.1-.7-.7-1.8-1.2-3-1.4-3.6-.5-9.9-.9-15.4-.9z"/><path fill="#292929" d="M24.3 37.2c-7.1 0-12.9-5.8-12.9-12.9 0-7.1 5.8-12.9 12.9-12.9 7.1 0 12.9 5.8 12.9 12.9 0 7.1-5.8 12.9-12.9 12.9zm0-22.4c-5.2 0-9.4 4.2-9.4 9.4s4.2 9.4 9.4 9.4 9.4-4.2 9.4-9.4-4.3-9.4-9.4-9.4z"/><circle fill="#292929" cx="37.7" cy="10.7" r="2.7"/></symbol><symbol id="icon-insta" viewBox="0 0 48.5 48.5"><path fill="#FFF" d="M24.2 48.5c-5.7 0-12.2-.4-15.9-1-2-.3-3.7-1.1-5-2.3-1.2-1.3-2.1-3-2.4-5-.6-3.7-1-10.3-1-15.9C0 18.6.4 12 1 8.3c.3-2 1.1-3.7 2.3-5 1.3-1.2 3-2 5-2.4C12 .4 18.6 0 24.3 0 30 0 36.5.4 40.2 1c2 .3 3.7 1.1 5 2.3 1.2 1.3 2.1 3 2.4 5 .6 3.7 1 10.2 1 15.9 0 5.7-.4 12.2-1 15.9-.3 2.1-1.1 3.8-2.4 5-1.2 1.2-3 2-5 2.3-3.7.7-10.3 1.1-16 1.1zm.1-45c-5.5 0-11.8.4-15.4.9-1.3.2-2.4.7-3.1 1.4-.7.7-1.2 1.8-1.4 3-.5 3.5-.9 9.9-.9 15.4s.4 11.9.9 15.4c.2 1.3.7 2.4 1.4 3.1.7.7 1.8 1.2 3 1.4 3.5.5 9.9.9 15.4.9s11.8-.4 15.4-.9c1.3-.2 2.4-.7 3.1-1.4.7-.7 1.2-1.7 1.4-3 .5-3.5.9-9.9.9-15.4s-.4-11.9-.9-15.4c-.2-1.3-.7-2.4-1.4-3.1-.7-.7-1.8-1.2-3-1.4-3.6-.5-9.9-.9-15.4-.9z"/><path fill="#FFF" d="M24.3 37.2c-7.1 0-12.9-5.8-12.9-12.9 0-7.1 5.8-12.9 12.9-12.9 7.1 0 12.9 5.8 12.9 12.9 0 7.1-5.8 12.9-12.9 12.9zm0-22.4c-5.2 0-9.4 4.2-9.4 9.4s4.2 9.4 9.4 9.4 9.4-4.2 9.4-9.4-4.3-9.4-9.4-9.4z"/><circle fill="#FFF" cx="37.7" cy="10.7" r="2.7"/></symbol><symbol id="icon-man" viewBox="0 0 15.5 25.1"><circle fill="none" stroke="#FFF" stroke-width="2" stroke-miterlimit="10" cx="7.8" cy="6" r="5"/><path fill="none" stroke="#FFF" stroke-width="2" stroke-miterlimit="10" d="M12.8 24.1c1 0 2-.9 1.7-2.2l-1.7-6.1c-.2-1-1.1-1.6-2.1-1.6H4.9c-1 0-1.9.6-2.1 1.6L1 21.9c-.3 1.3.7 2.2 1.7 2.2h10.1z"/></symbol><symbol id="icon-vk--gray" viewBox="0 0 51.6 51.6"><path fill="#292929" d="M25.8 51.6C11.6 51.6 0 40 0 25.8 0 11.6 11.6 0 25.8 0 40 0 51.6 11.6 51.6 25.8 51.6 40 40 51.6 25.8 51.6zm0-48.1c-12.3 0-22.3 10-22.3 22.3s10 22.3 22.3 22.3 22.3-10 22.3-22.3-10-22.3-22.3-22.3z"/><path fill="#292929" d="M37.8 28.5c1.1 1.1 2.3 2.1 3.3 3.3.4.5.9 1.1 1.2 1.7.5.9 0 1.9-.7 1.9h-4.9c-1.3.1-2.3-.4-3.1-1.3-.7-.7-1.3-1.4-2-2.1-.3-.3-.6-.6-.9-.8-.7-.4-1.3-.3-1.6.4-.4.7-.5 1.5-.5 2.3-.1 1.2-.4 1.5-1.6 1.5-2.5.1-4.8-.3-7-1.5-1.9-1.1-3.4-2.7-4.7-4.4-2.5-3.4-4.5-7.2-6.2-11.1-.4-.9-.1-1.3.9-1.4h4.8c.7 0 1.1.4 1.3 1 .9 2.1 1.9 4.2 3.3 6.1.4.5.7 1 1.2 1.4.6.4 1 .3 1.3-.4.2-.4.2-.8.3-1.3.1-1.5.1-3-.1-4.4-.1-.9-.7-1.5-1.6-1.7-.5-.1-.4-.3-.2-.5.4-.5.8-.8 1.5-.8h5.6c.9.2 1.1.6 1.2 1.4V24c0 .3.2 1.4.8 1.6.5.2.8-.2 1.1-.5 1.3-1.4 2.3-3.1 3.1-4.8.4-.8.7-1.6 1-2.3.2-.6.6-.9 1.3-.9h5.9c.9.2 1.1.5.9 1.4-.4 1.4-1.3 2.5-2.1 3.7-.9 1.2-1.8 2.4-2.7 3.7-1.2 1.1-1.1 1.6-.1 2.6z"/></symbol><symbol id="icon-vk" viewBox="0 0 51.6 51.6"><circle fill="none" stroke="#FFF" stroke-width="3.5" stroke-miterlimit="10" cx="25.8" cy="25.8" r="24"/><path fill="#FFF" d="M37.8 28.5c1.1 1.1 2.3 2.1 3.3 3.3.4.5.9 1.1 1.2 1.7.5.9 0 1.9-.7 1.9h-4.9c-1.3.1-2.3-.4-3.1-1.3-.7-.7-1.3-1.4-2-2.1-.3-.3-.6-.6-.9-.8-.7-.4-1.3-.3-1.6.4-.4.7-.5 1.5-.5 2.3-.1 1.2-.4 1.5-1.6 1.5-2.5.1-4.8-.3-7-1.5-1.9-1.1-3.4-2.7-4.7-4.4-2.5-3.4-4.5-7.2-6.2-11.1-.4-.9-.1-1.3.9-1.4h4.8c.7 0 1.1.4 1.3 1 .9 2.1 1.9 4.2 3.3 6.1.4.5.7 1 1.2 1.4.6.4 1 .3 1.3-.4.2-.4.2-.8.3-1.3.1-1.5.1-3-.1-4.4-.1-.9-.7-1.5-1.6-1.7-.5-.1-.4-.3-.2-.5.4-.5.8-.8 1.5-.8h5.6c.9.2 1.1.6 1.2 1.4V24c0 .3.2 1.4.8 1.6.5.2.8-.2 1.1-.5 1.3-1.4 2.3-3.1 3.1-4.8.4-.8.7-1.6 1-2.3.2-.6.6-.9 1.3-.9h5.9c.9.2 1.1.5.9 1.4-.4 1.4-1.3 2.5-2.1 3.7-.9 1.2-1.8 2.4-2.7 3.7-1.2 1.1-1.1 1.6-.1 2.6z"/></symbol></svg>